<?xml version="1.0" encoding="UTF-8" standalone="no"?>
<!-- Created with Inkscape (http://www.inkscape.org/) -->

<svg
   version="1.1"
   id="svg1"
   width="3333.3333"
   height="3333.3333"
   viewBox="0 0 3333.3333 3333.3333"
   sodipodi:docname="bwink_edu_01_single_12.eps"
   xmlns:inkscape="http://www.inkscape.org/namespaces/inkscape"
   xmlns:sodipodi="http://sodipodi.sourceforge.net/DTD/sodipodi-0.dtd"
   xmlns="http://www.w3.org/2000/svg"
   xmlns:svg="http://www.w3.org/2000/svg">
  <defs
     id="defs1" />
  <sodipodi:namedview
     id="namedview1"
     pagecolor="#ffffff"
     bordercolor="#000000"
     borderopacity="0.25"
     inkscape:showpageshadow="2"
     inkscape:pageopacity="0.0"
     inkscape:pagecheckerboard="0"
     inkscape:deskcolor="#d1d1d1">
    <inkscape:page
       x="0"
       y="0"
       inkscape:label="1"
       id="page1"
       width="3333.3333"
       height="3333.3333"
       margin="0"
       bleed="0" />
  </sodipodi:namedview>
  <g
     id="g1"
     inkscape:groupmode="layer"
     inkscape:label="1">
    <g
       id="group-R5">
      <path
         id="path2"
         d="M 25000,0 H 0 V 25000 H 25000 V 0"
         style="fill:#ffffff;fill-opacity:1;fill-rule:nonzero;stroke:none"
         transform="matrix(0.13333333,0,0,-0.13333333,0,3333.3333)" />
      <path
         id="path3"
         d="m 5529.93,7759.3 c -172.01,310.8 -59.49,702.2 251.33,874.2 310.82,172 702.24,59.5 874.25,-251.3 172.01,-310.8 59.49,-702.2 -251.33,-874.2 -310.82,-172.1 -702.24,-59.5 -874.25,251.3 z m 1079.37,-880 218.62,121 -76.37,262 c 45.61,37.1 87.6,77.4 125.53,120.6 l 258.74,-85.7 128.84,214.1 -197.19,188.8 c 20.62,54.2 36.68,110.1 48.04,167.1 l 267.33,55.2 4.53,249.8 -264.76,64.8 c -9.17,56.8 -23.33,113.2 -42.29,168.9 l 203.85,181.4 -120.99,218.6 -262,-76.3 c -37.08,45.6 -77.39,87.6 -120.63,125.5 l 85.7,258.7 -214.08,128.9 -188.77,-197.2 c -54.28,20.6 -110.17,36.7 -167.1,48 l -55.23,267.4 -249.82,4.5 -64.79,-264.8 c -56.79,-9.1 -113.24,-23.3 -168.88,-42.3 l -181.45,203.9 -218.62,-121 76.37,-262 c -45.6,-37.1 -87.59,-77.4 -125.52,-120.6 l -258.75,85.7 -128.83,-214.1 197.18,-188.8 c -20.61,-54.2 -36.68,-110.1 -48.04,-167.1 l -267.31,-55.2 -4.54,-249.8 264.76,-64.8 c 9.16,-56.8 23.34,-113.3 42.29,-168.9 l -203.85,-181.4 120.99,-218.7 262,76.4 c 37.08,-45.6 77.38,-87.6 120.63,-125.5 l -85.71,-258.8 214.1,-128.8 188.75,197.2 c 54.28,-20.6 110.18,-36.7 167.11,-48.1 l 55.23,-267.3 249.82,-4.5 64.79,264.7 c 56.79,9.2 113.24,23.4 168.88,42.3 l 181.44,-203.8"
         style="fill:#000000;fill-opacity:1;fill-rule:nonzero;stroke:none"
         transform="matrix(0.13333333,0,0,-0.13333333,0,3333.3333)" />
      <path
         id="path4"
         d="m 8262.53,5446.9 c -281.06,507.9 -97.2,1147.4 410.65,1428.5 507.85,281 1147.38,97.2 1428.42,-410.7 281.1,-507.8 97.2,-1147.4 -410.63,-1428.4 -507.85,-281.1 -1147.39,-97.2 -1428.44,410.6 z m 1763.57,-1437.8 357.2,197.7 -124.8,428.1 c 74.6,60.6 143.2,126.4 205.1,197.1 l 422.8,-140.1 210.5,349.8 -322.2,308.5 c 33.7,88.7 60,180 78.5,273 l 436.8,90.2 7.4,408.2 -432.6,105.9 c -15,92.8 -38.1,185 -69.1,275.9 l 333.1,296.5 -197.7,357.2 -428.1,-124.8 c -60.6,74.5 -126.4,143.1 -197.1,205.1 l 140.1,422.8 -349.8,210.5 -308.48,-322.2 c -88.68,33.7 -180,59.9 -273.02,78.5 l -90.24,436.8 -408.19,7.4 -105.85,-432.6 c -92.79,-15 -185.02,-38.2 -275.93,-69.1 l -296.46,333 -357.2,-197.6 124.77,-428.1 c -74.52,-60.6 -143.12,-126.5 -205.08,-197.1 l -422.77,140 -210.51,-349.8 322.17,-308.4 c -33.67,-88.7 -59.93,-180 -78.5,-273 l -436.76,-90.3 -7.41,-408.2 432.59,-105.8 c 14.97,-92.8 38.13,-185 69.09,-275.9 l -333.06,-296.5 197.68,-357.2 428.08,124.8 c 60.59,-74.6 126.43,-143.2 197.11,-205.1 l -140.04,-422.8 349.8,-210.5 308.42,322.2 c 88.68,-33.7 180.01,-59.9 273.03,-78.5 l 90.24,-436.8 408.19,-7.4 105.87,432.6 c 92.78,15 185.01,38.1 275.91,69.1 l 296.45,-333.1"
         style="fill:#000000;fill-opacity:1;fill-rule:nonzero;stroke:none"
         transform="matrix(0.13333333,0,0,-0.13333333,0,3333.3333)" />
      <path
         id="path5"
         d="M 3924.01,18747.7 H 16792.5 c 172.5,0 323.1,-139.9 336.3,-312.4 l 639,-8349.7 c 13.2,-172.6 -115.9,-312.4 -288.5,-312.4 H 4610.88 c -172.52,0 -323.07,139.8 -336.27,312.4 l -639.06,8349.7 c -13.21,172.5 115.93,312.4 288.46,312.4"
         style="fill:#ffffff;fill-opacity:1;fill-rule:nonzero;stroke:none"
         transform="matrix(0.13333333,0,0,-0.13333333,0,3333.3333)" />
      <path
         id="path6"
         d="m 3924.02,18724.6 c -76.77,0 -146.63,-29.7 -196.66,-83.8 -50.27,-54.2 -74.7,-126.6 -68.8,-203.7 l 639.07,-8349.8 c 12.26,-160.5 152.78,-291 313.24,-291 H 17479.3 c 76.8,0 146.7,29.7 196.7,83.8 50.3,54.2 74.7,126.6 68.8,203.7 l -639,8349.8 c -12.3,160.5 -152.9,291 -313.3,291 z M 17479.3,9750.1 H 4610.87 c -184.04,0 -345.2,149.7 -359.27,333.7 l -639.07,8349.8 c -6.9,90.1 21.87,174.8 80.97,238.6 58.88,63.6 140.74,98.6 230.52,98.6 H 16792.5 c 184,0 345.2,-149.7 359.3,-333.7 l 639.1,-8349.8 c 6.9,-90.1 -21.9,-174.8 -81,-238.6 -58.9,-63.6 -140.8,-98.6 -230.6,-98.6"
         style="fill:#000000;fill-opacity:1;fill-rule:nonzero;stroke:none"
         transform="matrix(0.13333333,0,0,-0.13333333,0,3333.3333)" />
      <path
         id="path7"
         d="m 13964.7,12195.4 c -11.9,0 -22,9.3 -23,21.4 l -43.9,573.9 c -1,12.7 8.6,23.8 21.3,24.8 12.3,1.1 23.8,-8.6 24.7,-21.3 l 44,-573.9 c 0.9,-12.7 -8.6,-23.8 -21.3,-24.8 -0.6,0 -1.2,-0.1 -1.8,-0.1"
         style="fill:#000000;fill-opacity:1;fill-rule:nonzero;stroke:none"
         transform="matrix(0.13333333,0,0,-0.13333333,0,3333.3333)" />
      <path
         id="path8"
         d="M 13617.5,10248.6 H 5493.88 c -250.81,0 -462.26,195.9 -481.42,446 l -160.45,2096.3 c -0.97,12.7 8.55,23.8 21.26,24.8 12.58,0.9 23.81,-8.6 24.77,-21.3 l 160.45,-2096.3 c 17.31,-226.1 208.56,-403.3 435.39,-403.3 h 8123.62 c 123,0 236.7,49.7 320.3,139.9 83.6,90.2 124.5,207.5 115.1,330.1 l -51.9,677.9 c -1,12.7 8.5,23.8 21.2,24.8 12.4,0.9 23.8,-8.6 24.8,-21.3 l 51.9,-677.9 c 10.2,-133.6 -36.1,-266.6 -127.2,-364.9 -91.1,-98.4 -220.2,-154.8 -354.2,-154.8"
         style="fill:#000000;fill-opacity:1;fill-rule:nonzero;stroke:none"
         transform="matrix(0.13333333,0,0,-0.13333333,0,3333.3333)" />
      <path
         id="path9"
         d="m 4636.98,15879.6 c -11.95,0 -22.07,9.2 -22.99,21.3 l -92.06,1202.7 c -10.23,133.6 36.16,266.6 127.24,364.9 91.06,98.4 220.18,154.7 354.18,154.7 h 294.56 c 12.76,0 23.08,-10.3 23.08,-23 0,-12.8 -10.32,-23.1 -23.08,-23.1 h -294.56 c -122.98,0 -236.74,-49.7 -320.32,-139.9 -83.58,-90.3 -124.45,-207.5 -115.07,-330.1 l 92.05,-1202.7 c 0.98,-12.7 -8.54,-23.8 -21.25,-24.7 -0.59,-0.1 -1.2,-0.1 -1.78,-0.1"
         style="fill:#000000;fill-opacity:1;fill-rule:nonzero;stroke:none"
         transform="matrix(0.13333333,0,0,-0.13333333,0,3333.3333)" />
      <path
         id="path10"
         d="M 8669.09,17577.1 H 6068.93 c -12.76,0 -23.08,10.3 -23.08,23.1 0,12.7 10.32,23 23.08,23 h 2600.16 c 12.76,0 23.08,-10.3 23.08,-23 0,-12.8 -10.32,-23.1 -23.08,-23.1"
         style="fill:#000000;fill-opacity:1;fill-rule:nonzero;stroke:none"
         transform="matrix(0.13333333,0,0,-0.13333333,0,3333.3333)" />
      <path
         id="path11"
         d="m 14502.2,14544.2 h 2208.6 l -56,730.8 h -2208.6 z m 2233.5,-46.2 h -2254.9 c -12.1,0 -22.1,9.3 -23,21.4 l -59.5,776.9 c -0.5,6.4 1.7,12.8 6.1,17.5 4.4,4.7 10.5,7.4 16.9,7.4 h 2254.9 c 12.1,0 22.1,-9.3 23,-21.4 l 59.5,-776.9 c 0.5,-6.4 -1.7,-12.8 -6.1,-17.5 -4.4,-4.7 -10.5,-7.4 -16.9,-7.4"
         style="fill:#000000;fill-opacity:1;fill-rule:nonzero;stroke:none"
         transform="matrix(0.13333333,0,0,-0.13333333,0,3333.3333)" />
      <path
         id="path12"
         d="m 14610.6,13127.7 h 2208.6 l -56,730.8 h -2208.6 z m 2233.5,-46.1 h -2254.9 c -12.1,0 -22.1,9.3 -23,21.3 l -59.5,776.9 c -0.5,6.4 1.7,12.8 6.1,17.5 4.4,4.7 10.5,7.4 16.9,7.4 h 2254.9 c 12.1,0 22.1,-9.3 23,-21.3 l 59.5,-777 c 0.5,-6.4 -1.7,-12.7 -6.1,-17.4 -4.4,-4.7 -10.5,-7.4 -16.9,-7.4"
         style="fill:#000000;fill-opacity:1;fill-rule:nonzero;stroke:none"
         transform="matrix(0.13333333,0,0,-0.13333333,0,3333.3333)" />
      <path
         id="path13"
         d="m 14719,11711.3 h 2208.6 l -55.9,730.8 H 14663 Z m 2233.5,-46.2 h -2254.9 c -12,0 -22.1,9.3 -23,21.3 l -59.5,777 c -0.5,6.4 1.7,12.7 6.1,17.4 4.4,4.7 10.5,7.4 16.9,7.4 H 16893 c 12.1,0 22.1,-9.3 23.1,-21.3 l 59.4,-777 c 0.5,-6.4 -1.7,-12.7 -6.1,-17.4 -4.3,-4.7 -10.5,-7.4 -16.9,-7.4"
         style="fill:#000000;fill-opacity:1;fill-rule:nonzero;stroke:none"
         transform="matrix(0.13333333,0,0,-0.13333333,0,3333.3333)" />
      <path
         id="path14"
         d="M 14827.4,10294.8 H 17036 l -56,730.8 h -2208.5 z m 2233.5,-46.2 H 14806 c -12,0 -22.1,9.3 -23,21.4 l -59.5,776.9 c -0.5,6.4 1.8,12.7 6.1,17.5 4.4,4.7 10.5,7.3 17,7.3 h 2254.8 c 12.1,0 22.1,-9.2 23.1,-21.3 l 59.4,-776.9 c 0.5,-6.4 -1.7,-12.8 -6.1,-17.5 -4.3,-4.7 -10.5,-7.4 -16.9,-7.4"
         style="fill:#000000;fill-opacity:1;fill-rule:nonzero;stroke:none"
         transform="matrix(0.13333333,0,0,-0.13333333,0,3333.3333)" />
      <path
         id="path15"
         d="M 14396.5,15925.9 H 16605 l -126.4,1651.2 H 14270 Z m 2233.5,-46.1 h -2254.9 c -12.1,0 -22.1,9.2 -23,21.3 l -130,1697.3 c -0.5,6.4 1.7,12.7 6.1,17.4 4.4,4.8 10.5,7.4 16.9,7.4 H 16500 c 12.1,0 22.1,-9.3 23,-21.3 l 130,-1697.3 c 0.5,-6.4 -1.7,-12.7 -6.1,-17.4 -4.4,-4.8 -10.5,-7.4 -16.9,-7.4"
         style="fill:#000000;fill-opacity:1;fill-rule:nonzero;stroke:none"
         transform="matrix(0.13333333,0,0,-0.13333333,0,3333.3333)" />
      <path
         id="path16"
         d="m 13281.9,16380.2 c 0,0 1044,-402.8 2299.9,617.1 576.2,468.1 926.9,1159 976,1899.8 9.5,144.7 74.2,280.3 180.7,378.8 l 779.1,496.5 c 15.3,9.7 35,8.5 48.9,-3 15.2,-12.4 13.2,-37.3 12.4,-47.4 -7.4,-90 -250.8,-310.4 -337.9,-506.7 -27.4,-61.6 -56.7,-159.9 -43.3,-302.9 109.4,32.7 218.8,65.3 328.3,97.9 23.4,7 48.8,0.2 65.6,-17.5 19.7,-21 15.5,-53.4 13.8,-66.5 -14.1,-109 -270.8,-289.5 -415.1,-440.6 -59.7,-62.6 -143,-164.9 -214.4,-321.7 31,-375.2 46.1,-1219.8 -445.7,-2072.4 -920,-1594.8 -2784.3,-1780.3 -2979.7,-1796.5 l -268.6,2085.1"
         style="fill:#ffffff;fill-opacity:1;fill-rule:nonzero;stroke:none"
         transform="matrix(0.13333333,0,0,-0.13333333,0,3333.3333)" />
      <path
         id="path17"
         d="m 13309.6,16346.5 260.9,-2026.4 c 291.4,27.7 2059.2,256.7 2939.7,1783 443.1,768.1 485.3,1543.7 442.7,2059 -0.4,3.9 0.4,7.9 2,11.5 57.2,125.6 130.8,235.9 218.8,328 48,50.3 108.7,104.2 167.3,156.2 109.3,96.9 233.2,206.8 241.6,271.5 1.3,10.4 4.5,34.6 -7.8,47.6 -10.9,11.5 -27.1,15.8 -42.2,11.3 l -328.3,-97.9 c -6.6,-2 -13.8,-0.9 -19.6,3 -5.7,3.9 -9.4,10.1 -10,17 -10.9,116.6 4.3,222.3 45.2,314.4 45.6,102.7 130.9,209.4 206.1,303.5 65.3,81.6 126.9,158.6 129.9,195.7 1.5,19 -1.4,25.5 -4,27.7 -6.3,5.2 -15,5.7 -21.8,1.3 l -777.4,-495.4 c -101.7,-94.8 -162.7,-223.2 -171.9,-361.9 -49.7,-750 -408.5,-1448.4 -984.5,-1916.2 -653.5,-530.7 -1249.2,-671.5 -1633.9,-696.2 -334.2,-21.3 -567.2,36.9 -652.8,63.3 z m 240.8,-2074.4 c -11.5,0 -21.3,8.5 -22.8,20.1 l -268.6,2085 c -1,8.1 2.3,16.1 8.7,21.1 6.4,5 14.9,6.3 22.5,3.4 10.3,-4 1047,-385.3 2277,613.6 566,459.6 918.7,1146.1 967.5,1883.3 10,151.2 76.8,291.2 188.1,394.2 1,1 2.1,1.8 3.3,2.6 l 779.1,496.5 c 23.8,15.1 54.3,13.3 76,-4.6 24.5,-20.2 21.7,-54.2 20.7,-67.1 -4.2,-51.2 -64,-126.1 -139.8,-220.8 -73.5,-92 -156.9,-196.1 -200,-293.4 -34.4,-77.4 -49,-165.8 -43.6,-263.3 l 300.9,89.7 c 32,9.6 66,0.5 88.9,-23.8 27.4,-28.9 22,-69.8 20,-85.3 -10.6,-81.8 -130.1,-187.8 -256.6,-300 -58,-51.4 -117.9,-104.6 -164.7,-153.6 -83.1,-87 -152.9,-191.2 -207.6,-309.8 42.3,-521.9 -1.9,-1304.4 -449.2,-2079.9 -918.3,-1591.9 -2787.7,-1790.5 -2997.8,-1807.9 -0.7,0 -1.3,0 -2,0"
         style="fill:#000000;fill-opacity:1;fill-rule:nonzero;stroke:none"
         transform="matrix(0.13333333,0,0,-0.13333333,0,3333.3333)" />
      <path
         id="path18"
         d="m 6647.44,10267.9 h 5011.36 c 21.3,1795.2 736.3,3988.4 736.3,3988.4 l 1397.8,-103.9 165.4,2472.9 c 0,0 -1424.8,105.4 -2578,204.8 -778.6,67.1 -2221.76,-215 -3077.03,-405.3 -438.36,-97.6 -827.02,-349.2 -1096.24,-708.6 l -801.23,-1069.8 869.73,-494 c -745.37,-1258.1 -738.77,-2857.8 -628.09,-3884.5"
         style="fill:#000000;fill-opacity:1;fill-rule:nonzero;stroke:none"
         transform="matrix(0.13333333,0,0,-0.13333333,0,3333.3333)" />
      <path
         id="path19"
         d="m 10106.6,13798.4 214.3,-3550.1 c 3.3,-54.1 -26.2,-104.5 -74.2,-126.8 L 6095.27,8181.8 c -41.39,-19.3 -85.88,-13.8 -120.3,8.4 -33.12,21.4 -130.85,83 -130.85,83 l -143.13,3570.1 c -3.27,54.1 26.24,104.6 74.19,126.9 l 4168.34,2003.9 c 0,0 73.58,-51.1 108.68,-76.2 30.3,-21.8 51.8,-57 54.4,-99.5"
         style="fill:#000000;fill-opacity:1;fill-rule:nonzero;stroke:none"
         transform="matrix(0.13333333,0,0,-0.13333333,0,3333.3333)" />
      <path
         id="path20"
         d="M 9974.64,13877.1 10189,10327 c 3.3,-54.1 -26.2,-104.5 -74.2,-126.8 L 5974.7,8271.8 c -81.23,-37.8 -174.4,19.9 -179.93,111.5 l -214.35,3550.1 c -3.27,54.1 26.23,104.5 74.19,126.8 l 4140.1,1928.4 c 81.23,37.8 174.4,-19.9 179.93,-111.5"
         style="fill:#ffffff;fill-opacity:1;fill-rule:nonzero;stroke:none"
         transform="matrix(0.13333333,0,0,-0.13333333,0,3333.3333)" />
      <path
         id="path21"
         d="m 9847.29,13977.3 c -14.5,0 -29.04,-3.2 -42.86,-9.6 L 5664.35,12039.3 c -39.11,-18.2 -63.58,-60.2 -60.9,-104.5 l 214.36,-3550.1 c 2.19,-36.3 21.73,-68.8 52.27,-87 29.44,-17.6 63.97,-19.4 94.9,-5 l 4140.12,1928.4 c 39.1,18.2 63.5,60.2 60.9,104.5 l -214.4,3550.1 c -2.19,36.3 -21.73,68.8 -52.27,87 -16.27,9.7 -34.12,14.6 -52.04,14.6 z M 5922.06,8236.9 c -26.06,0 -51.98,7.1 -75.6,21.1 -43.69,26.1 -71.62,72.4 -74.73,123.9 L 5557.37,11932 c -3.81,63 31.36,123 87.51,149.2 l 4140.08,1928.3 c 44.95,21 95.25,18.3 137.99,-7.1 43.69,-26.1 71.62,-72.4 74.73,-123.9 L 10212,10328.4 c 3.8,-63.1 -31.3,-123 -87.5,-149.2 L 5984.45,8250.9 c -20.1,-9.4 -41.3,-14 -62.39,-14"
         style="fill:#000000;fill-opacity:1;fill-rule:nonzero;stroke:none"
         transform="matrix(0.13333333,0,0,-0.13333333,0,3333.3333)" />
      <path
         id="path22"
         d="m 9692.38,14157.2 214.36,-3550.1 c 3.26,-54.1 -26.24,-104.5 -74.19,-126.9 L 5692.45,8551.9 c -81.23,-37.8 -174.4,19.9 -179.94,111.5 l -214.35,3550.1 c -3.27,54 26.23,104.5 74.19,126.8 l 4140.1,1928.4 c 81.23,37.8 174.4,-19.9 179.93,-111.5"
         style="fill:#ffffff;fill-opacity:1;fill-rule:nonzero;stroke:none"
         transform="matrix(0.13333333,0,0,-0.13333333,0,3333.3333)" />
      <path
         id="path23"
         d="m 9565.03,14257.4 c -14.49,0 -29.03,-3.2 -42.85,-9.6 l -4140.1,-1928.4 c -39.09,-18.2 -63.57,-60.2 -60.88,-104.6 l 214.36,-3550 c 2.18,-36.3 21.73,-68.8 52.29,-87 29.39,-17.6 63.99,-19.3 94.85,-5 l 4140.11,1928.4 c 39.1,18.2 63.58,60.2 60.9,104.5 l -214.36,3550.1 c -2.21,36.3 -21.75,68.8 -52.31,87 -16.26,9.7 -34.11,14.6 -52.01,14.6 z M 5639.8,8516.9 c -26.05,0 -51.97,7.1 -75.6,21.2 -43.68,26 -71.61,72.4 -74.72,123.9 l -214.36,3550.1 c -3.81,63 31.34,123 87.48,149.1 l 4140.11,1928.4 c 44.92,21 95.19,18.4 137.94,-7.1 43.71,-26 71.66,-72.4 74.77,-123.9 l 214.37,-3550.1 c 3.8,-63.1 -31.36,-123 -87.51,-149.2 L 5702.17,8531 c -20.1,-9.4 -41.27,-14.1 -62.37,-14.1"
         style="fill:#000000;fill-opacity:1;fill-rule:nonzero;stroke:none"
         transform="matrix(0.13333333,0,0,-0.13333333,0,3333.3333)" />
      <path
         id="path24"
         d="m 9456.49,13850.4 188.87,-3127.9 c 2.88,-47.6 -23.12,-92.1 -65.37,-111.8 l -3647.83,-1699 c -71.57,-33.4 -153.67,17.5 -158.54,98.2 l -188.87,3128 c -2.88,47.6 23.12,92.1 65.37,111.7 l 3647.83,1699.1 c 71.57,33.4 153.67,-17.5 158.54,-98.3"
         style="fill:#ffffff;fill-opacity:1;fill-rule:nonzero;stroke:none"
         transform="matrix(0.13333333,0,0,-0.13333333,0,3333.3333)" />
      <path
         id="path25"
         d="m 9344.25,13936 c -12.36,0 -24.77,-2.7 -36.56,-8.2 L 5659.87,12228.7 c -33.43,-15.5 -54.37,-51.5 -52.1,-89.5 l 188.9,-3127.9 c 1.87,-31.1 18.59,-58.9 44.72,-74.5 25.1,-15 54.61,-16.5 81.03,-4.2 l 3647.84,1699 c 33.43,15.6 54.35,51.6 52.07,89.6 l -188.87,3127.9 c -1.89,31 -18.62,58.9 -44.76,74.4 -13.89,8.3 -29.12,12.5 -44.45,12.5 z M 5885.77,8878.1 c -23.45,0 -46.75,6.4 -68.01,19 -39.26,23.5 -64.37,65.1 -67.17,111.4 l -188.89,3127.9 c -3.4,56.8 28.22,110.7 78.69,134.2 l 3647.82,1699 c 40.39,18.9 85.66,16.6 124.13,-6.4 39.27,-23.4 64.4,-65 67.2,-111.3 l 188.86,-3128 c 3.41,-56.7 -28.19,-110.6 -78.66,-134.1 L 5941.89,8890.7 c -18.07,-8.4 -37.14,-12.6 -56.12,-12.6"
         style="fill:#000000;fill-opacity:1;fill-rule:nonzero;stroke:none"
         transform="matrix(0.13333333,0,0,-0.13333333,0,3333.3333)" />
      <path
         id="path26"
         d="m 8669.12,10164.4 c -8.7,0 -17.04,5 -20.95,13.4 -5.38,11.5 -0.38,25.2 11.19,30.6 l 904.86,421.5 c 33.43,15.6 54.37,51.5 52.09,89.5 l -20.96,347.2 c -0.77,12.7 8.93,23.7 21.64,24.4 12.76,0.7 23.66,-8.9 24.43,-21.6 l 20.96,-347.3 c 3.41,-56.7 -28.21,-110.6 -78.68,-134 l -904.87,-421.5 c -3.16,-1.5 -6.47,-2.2 -9.71,-2.2"
         style="fill:#000000;fill-opacity:1;fill-rule:nonzero;stroke:none"
         transform="matrix(0.13333333,0,0,-0.13333333,0,3333.3333)" />
      <path
         id="path27"
         d="m 5769.64,12278.2 c -8.68,0 -17,4.9 -20.92,13.3 -5.41,11.5 -0.45,25.3 11.09,30.7 l 598.63,280.6 c 11.63,5.5 25.29,0.4 30.7,-11.1 5.41,-11.5 0.45,-25.2 -11.09,-30.7 l -598.63,-280.6 c -3.17,-1.5 -6.51,-2.2 -9.78,-2.2"
         style="fill:#000000;fill-opacity:1;fill-rule:nonzero;stroke:none"
         transform="matrix(0.13333333,0,0,-0.13333333,0,3333.3333)" />
      <path
         id="path28"
         d="m 6671.24,14517.3 1257.87,-739.7 c 0,0 -1049.79,-1714.4 545.82,-3529.7 l 1031.12,126.6 c 0,0 -221.64,-165.4 -449.95,-206.8 -228.32,-41.3 -277.16,-284.6 -277.16,-284.6 l 468.64,-257.2 c 0,0 -576.37,-536.2 -937.28,-327 -360.9,209.1 -3364.45,2458.9 -1639.06,5218.4"
         style="fill:#ffffff;fill-opacity:1;fill-rule:nonzero;stroke:none"
         transform="matrix(0.13333333,0,0,-0.13333333,0,3333.3333)" />
      <path
         id="path29"
         d="m 6678.95,14486 c -486.54,-787.5 -629.34,-1605 -424.46,-2430.2 366.77,-1477.4 1745.72,-2550.5 2067.39,-2737 301.48,-174.6 774.22,206.4 885.84,302.6 l -439.9,241.4 c -8.84,4.9 -13.5,14.9 -11.52,24.8 0.52,2.6 54.73,259.2 295.67,302.9 138.6,25.1 276.12,98.1 359.65,149.2 L 8477.74,10225 c -7.63,-1 -15.1,2 -20.15,7.7 -829.69,943.9 -934.82,1860.4 -876.91,2463 55.15,573.8 265.01,980.2 317.03,1073.6 z M 8501.71,9227 c -70.98,0 -139.8,15.2 -202.98,51.9 -325.03,188.4 -1718.4,1272.8 -2089.06,2765.8 -209.65,844.4 -60.94,1680.5 442,2484.8 6.63,10.6 20.44,14 31.26,7.7 l 1257.88,-739.7 c 5.34,-3.2 9.19,-8.3 10.68,-14.3 1.51,-6 0.55,-12.4 -2.7,-17.7 -2.59,-4.2 -261.02,-433.1 -322.35,-1076.4 -56.38,-591 47.1,-1489.3 857.8,-2416.8 l 1018.99,125.1 c 10.32,1.6 20.33,-4.5 24.23,-14.3 3.9,-9.7 0.79,-20.8 -7.62,-27.1 -9.22,-6.9 -228.63,-169.1 -459.63,-211 -177.28,-32.1 -239.1,-197.6 -254.45,-250.3 l 452.93,-248.5 c 6.49,-3.6 10.88,-10.1 11.78,-17.5 0.93,-7.3 -1.75,-14.6 -7.16,-19.7 -19.98,-18.6 -415.38,-382 -761.6,-382"
         style="fill:#000000;fill-opacity:1;fill-rule:nonzero;stroke:none"
         transform="matrix(0.13333333,0,0,-0.13333333,0,3333.3333)" />
      <path
         id="path30"
         d="m 10168.1,17574.9 c -125.2,-78 -321.83,-200.5 -540.88,-135.1 -233.22,69.6 -426.78,332.9 -383.51,509.1 37.91,154.4 235.31,150.9 265.51,311.7 28.4,151.4 -136.25,208.8 -147.51,394.8 -15.01,247.9 253.03,543.6 501.51,550.7 152.48,4.3 167.88,-103.7 344.18,-114.3 240.2,-14.4 287.9,181.4 560.5,207.8 196.4,19 356.7,-64.6 491.7,-135.1 200.2,-104.5 331.8,-173.1 344.2,-280.5 25.4,-219.9 -488.8,-255.1 -963.7,-810.4 -172.7,-201.9 -237.6,-352.7 -472,-498.7"
         style="fill:#000000;fill-opacity:1;fill-rule:nonzero;stroke:none"
         transform="matrix(0.13333333,0,0,-0.13333333,0,3333.3333)" />
      <path
         id="path31"
         d="m 10978.4,17391.3 c 185.3,502.8 -218.9,1142.1 -248.6,1194.8 0,0 -228.6,-190.4 -533.5,-169.9 -305.01,20.4 -279.58,-392.4 -279.58,-392.4 -165.83,36.6 -194.73,-74.9 -153.7,-302.5 41.03,-227.7 267.08,-161.1 267.08,-161.1 31.5,-37.7 64.6,-70.4 98.6,-99.1 l -387.18,-572.9 c -105.7,-156.4 -253.37,-279.8 -426.05,-356 l -156.94,-69.3 c -40.9,-18 -32.58,-78.5 11.72,-84.4 306.7,-41.2 1026.75,-92.6 1567.25,222 32.5,18.8 24,68.1 -12.7,75.9 l -125.8,26.8 c -89.3,19.1 -135.9,118.1 -93.6,199.1 l 196.3,375.5 c 68.4,2.8 127.2,12 169.9,20.9 49.4,10.2 89.4,45.3 106.8,92.6"
         style="fill:#ffffff;fill-opacity:1;fill-rule:nonzero;stroke:none"
         transform="matrix(0.13333333,0,0,-0.13333333,0,3333.3333)" />
      <path
         id="path32"
         d="m 10978.4,17391.3 h 0.3 z m -948.3,191.9 c 6.8,0 13.3,-2.9 17.7,-8.2 29,-34.7 61.2,-67.1 95.8,-96.3 9,-7.6 10.9,-20.8 4.3,-30.5 l -387.26,-572.9 c -108.24,-160.2 -258.97,-286.2 -435.86,-364.2 l -156.93,-69.3 c -13.75,-6.1 -13.07,-18.8 -12.54,-22.6 0.52,-3.7 3.39,-15.9 18.02,-17.9 287.41,-38.5 1014.07,-94.3 1552.57,219.1 9.4,5.4 9,14.5 8.4,18.1 -0.4,3 -2.9,12.9 -14.4,15.3 l -125.6,26.8 c -49.8,10.6 -90.7,43.1 -112.4,89.1 -21.6,46 -20.5,98.2 3,143.3 l 196.4,375.5 c 3.8,7.3 11.2,12.1 19.5,12.4 55.4,2.3 112.8,9.3 166.1,20.4 41.4,8.5 75,37.7 89.9,78 152.7,414.5 -107.8,937.2 -233.7,1152.6 -64.8,-47.1 -268,-176 -528.4,-158.8 -67.6,4.5 -122.7,-13.8 -163.8,-54.7 -102.63,-101.9 -91.29,-311.1 -91.15,-313.2 0.43,-7.2 -2.55,-14.2 -8.05,-18.9 -5.5,-4.7 -12.92,-6.5 -19.95,-5 -53.15,11.7 -89.51,7.2 -111.28,-13.7 -35.55,-34.2 -40.37,-120 -14.72,-262.2 10.73,-59.6 36.02,-102.1 75.17,-126.4 69.4,-43.1 161.78,-17 162.78,-16.7 2.1,0.6 4.2,0.9 6.4,0.9 z m -399.88,-1258.3 c -192.86,0 -357.22,16.5 -463.03,30.7 -30.18,4 -53.31,27 -57.59,57.1 -4.3,30.3 11.61,59 39.6,71.3 l 156.93,69.3 c 168.94,74.6 312.89,194.8 416.28,347.8 l 375.79,556 c -27.2,24 -52.8,50 -76.5,77.3 -33.17,-6.9 -115.58,-17.6 -184.79,25.2 -50.91,31.4 -83.41,84.4 -96.6,157.5 -29.4,163.1 -20.72,256.8 28.15,303.8 28.87,27.8 69.72,38 124.61,30.6 0.35,65.7 11.45,226.3 105.22,319.6 50.91,50.7 118.01,73.6 199.51,68.1 292,-19.7 515,162.8 517.2,164.7 5.3,4.3 12.3,6.1 19,4.9 6.7,-1.2 12.6,-5.4 15.9,-11.4 1.5,-2.6 4,-6.9 7.4,-12.6 157.6,-266.9 398.8,-778 242.8,-1201.5 -20.4,-55.4 -66.7,-95.5 -123.8,-107.3 -52.2,-10.8 -106.1,-17.7 -160.3,-20.6 l -190.2,-363.8 c -16.7,-32.2 -17.5,-69.4 -2.1,-102.2 15.5,-32.9 44.7,-56.1 80.2,-63.6 l 125.6,-26.8 c 26.4,-5.6 46.2,-26.5 50.4,-53.2 4.3,-26.3 -7.8,-52 -30.7,-65.3 -351.4,-204.5 -779.34,-255.6 -1118.98,-255.6"
         style="fill:#000000;fill-opacity:1;fill-rule:nonzero;stroke:none"
         transform="matrix(0.13333333,0,0,-0.13333333,0,3333.3333)" />
      <path
         id="path33"
         d="m 10652.4,17251.7 c -165.3,0 -317.9,91.2 -325,95.5 -10.9,6.6 -14.4,20.8 -7.8,31.7 6.6,10.9 20.8,14.3 31.7,7.8 1.8,-1.1 179.7,-107.4 347.5,-86 12.6,1.5 24.2,-7.3 25.8,-20 1.6,-12.6 -7.3,-24.2 -20,-25.8 -17.4,-2.2 -34.9,-3.2 -52.2,-3.2"
         style="fill:#000000;fill-opacity:1;fill-rule:nonzero;stroke:none"
         transform="matrix(0.13333333,0,0,-0.13333333,0,3333.3333)" />
      <path
         id="path34"
         d="m 9863.04,16028.3 c -186,0 -349.78,19.6 -486.33,46.1 -429.58,83.4 -682.53,247 -693.08,253.9 -10.66,7 -13.63,21.3 -6.65,31.9 6.99,10.7 21.3,13.6 31.94,6.7 10.12,-6.6 1025.37,-652.8 2398.88,1.5 11.5,5.5 25.3,0.6 30.7,-10.9 5.5,-11.5 0.6,-25.3 -10.9,-30.7 -478.2,-227.9 -911.4,-298.5 -1264.56,-298.5"
         style="fill:#ffffff;fill-opacity:1;fill-rule:nonzero;stroke:none"
         transform="matrix(0.13333333,0,0,-0.13333333,0,3333.3333)" />
      <path
         id="path35"
         d="m 17735.4,21599.9 c -0.4,0 -0.8,0 -1.1,0 -91.2,4.5 -185,5.1 -275,2.1 -0.2,-0.1 -0.5,-0.1 -0.8,-0.1 -12.4,0 -22.6,9.9 -23,22.4 -0.5,12.7 9.5,23.4 22.3,23.8 91.1,3.1 186.3,2.4 278.7,-2.1 12.7,-0.6 22.6,-11.4 21.9,-24.1 -0.6,-12.4 -10.8,-22 -23,-22 z m -826.2,-62.2 c -10.7,0 -20.4,7.5 -22.6,18.4 -2.5,12.5 5.6,24.7 18,27.3 90.6,18.3 183.2,33.1 275.3,43.9 12.8,1.5 24.1,-7.6 25.6,-20.3 1.5,-12.6 -7.6,-24.1 -20.2,-25.6 -90.9,-10.6 -182.2,-25.2 -271.5,-43.3 -1.5,-0.3 -3.1,-0.4 -4.6,-0.4 z m 1374.5,-10.5 c -1.7,0 -3.3,0.2 -5,0.6 -88.9,19.5 -180,35.4 -270.7,47.4 -12.6,1.7 -21.5,13.3 -19.8,25.9 1.6,12.7 13.1,21.5 25.9,19.9 91.9,-12.2 184.3,-28.4 274.5,-48.2 12.5,-2.7 20.3,-15 17.6,-27.4 -2.4,-10.8 -11.9,-18.2 -22.5,-18.2 z m -1905.4,-144.7 c -9.2,0 -18,5.6 -21.5,14.7 -4.6,11.9 1.3,25.3 13.2,29.9 86.4,33.3 175.2,63.4 264.1,89.4 12.2,3.6 25,-3.5 28.6,-15.7 3.5,-12.3 -3.5,-25.1 -15.7,-28.7 -87.6,-25.5 -175.2,-55.2 -260.3,-88.1 -2.8,-1 -5.6,-1.5 -8.4,-1.5 z m 2434,-18.6 c -2.9,0 -5.8,0.5 -8.6,1.6 -84.9,34.3 -172.1,65.3 -259.2,92.2 -12.2,3.8 -19,16.7 -15.2,28.9 3.7,12.2 16.7,19.1 28.8,15.2 88.4,-27.3 176.8,-58.7 262.9,-93.5 11.8,-4.7 17.5,-18.2 12.7,-30 -3.6,-9 -12.2,-14.4 -21.4,-14.4 z m -2931.2,-223.1 c -7.9,0 -15.6,4 -19.9,11.3 -6.5,11 -2.9,25.1 8.1,31.6 79.5,47.3 162,91.7 245.2,132.2 11.5,5.6 25.4,0.8 30.9,-10.6 5.6,-11.5 0.8,-25.3 -10.7,-30.9 -82,-39.9 -163.4,-83.8 -241.9,-130.4 -3.7,-2.2 -7.7,-3.2 -11.7,-3.2 z m 3425.2,-26.5 c -4.2,0 -8.3,1.1 -12.1,3.4 -77.8,47.9 -158.6,93 -240.1,134.2 -11.3,5.8 -15.9,19.6 -10.2,31 5.8,11.4 19.7,15.9 31.1,10.2 82.6,-41.7 164.5,-87.5 243.4,-136.1 10.8,-6.7 14.2,-20.9 7.5,-31.8 -4.3,-7 -11.9,-10.9 -19.6,-10.9 z m -3875.5,-294.7 c -6.6,0 -13.1,2.8 -17.6,8.2 -8.3,9.7 -7.1,24.3 2.6,32.5 70.9,60 144.9,117.6 220,171.2 10.4,7.4 24.8,5 32.2,-5.4 7.4,-10.4 5,-24.8 -5.4,-32.2 -74.1,-52.9 -147.1,-109.7 -216.9,-168.8 -4.4,-3.7 -9.7,-5.5 -14.9,-5.5 z m 4320.9,-33.6 c -5.4,0 -10.8,1.9 -15.2,5.7 -68.7,60.1 -140.9,118.1 -214.3,172.2 -10.3,7.6 -12.5,22 -4.9,32.3 7.5,10.3 22,12.4 32.3,4.9 74.4,-54.9 147.6,-113.7 217.3,-174.6 9.6,-8.4 10.6,-23 2.2,-32.6 -4.5,-5.2 -11,-7.9 -17.4,-7.9 z m -4712,-357.8 c -5.2,0 -10.5,1.8 -14.8,5.5 -9.8,8.2 -11,22.8 -2.8,32.5 59.7,70.7 123.2,139.7 188.7,205.3 9,9 23.6,9 32.7,0 9,-9 9,-23.7 0,-32.7 -64.6,-64.6 -127.2,-132.7 -186.1,-202.4 -4.6,-5.4 -11.1,-8.2 -17.7,-8.2 z m 5096.9,-39.5 c -6.7,0 -13.3,2.9 -17.8,8.4 -57.9,70.6 -119.4,139.6 -183,205.3 -8.8,9.1 -8.6,23.7 0.5,32.6 9.1,8.9 23.8,8.7 32.7,-0.5 64.4,-66.6 126.8,-136.6 185.5,-208.1 8,-9.9 6.6,-24.4 -3.3,-32.5 -4.3,-3.5 -9.4,-5.2 -14.6,-5.2 z m -5417.7,-411.3 c -4,0 -8.1,1.1 -11.8,3.3 -10.9,6.5 -14.6,20.6 -8.1,31.6 47.2,79.6 98.4,158.2 152.1,233.7 7.4,10.4 21.8,12.8 32.2,5.4 10.4,-7.4 12.8,-21.8 5.4,-32.2 -52.9,-74.4 -103.4,-152 -149.9,-230.4 -4.3,-7.3 -12,-11.4 -19.9,-11.4 z m 5731.4,-44.2 c -8,0 -15.8,4.2 -20,11.6 -45.3,79.1 -94.5,157.4 -146.3,232.6 -7.3,10.5 -4.6,24.9 5.9,32.1 10.5,7.2 24.9,4.6 32.1,-5.9 52.5,-76.3 102.5,-155.7 148.4,-235.9 6.3,-11 2.4,-25.1 -8.6,-31.5 -3.6,-2 -7.6,-3 -11.5,-3 z m -5972.8,-453.8 c -2.7,0 -5.5,0.5 -8.3,1.6 -11.8,4.5 -17.8,17.9 -13.2,29.8 33.2,86.3 70.5,172.4 111,255.9 5.5,11.4 19.4,16.2 30.8,10.6 11.5,-5.5 16.3,-19.3 10.7,-30.8 -39.9,-82.3 -76.7,-167.1 -109.4,-252.3 -3.6,-9.2 -12.3,-14.8 -21.6,-14.8 z m 6206.3,-47.4 c -9.5,0 -18.3,5.8 -21.7,15.1 -31.4,85.5 -66.8,170.8 -105.4,253.7 -5.4,11.5 -0.4,25.3 11.1,30.7 11.7,5.4 25.4,0.3 30.7,-11.2 39.2,-84.1 75.1,-170.6 106.9,-257.3 4.4,-11.9 -1.7,-25.2 -13.7,-29.6 -2.6,-1 -5.3,-1.4 -7.9,-1.4 z m -6360.7,-483.7 c -1.5,0 -3.1,0.1 -4.6,0.5 -12.5,2.5 -20.6,14.6 -18.1,27.1 18.4,91 40.7,182 66.6,270.7 3.5,12.3 16.3,19.4 28.6,15.7 12.2,-3.5 19.2,-16.3 15.7,-28.6 -25.5,-87.4 -47.5,-177.2 -65.6,-266.9 -2.2,-10.9 -11.9,-18.5 -22.6,-18.5 z m 6506.9,-49.7 c -10.9,0 -20.6,7.7 -22.6,18.8 -16.7,89.9 -37.4,180 -61.5,267.9 -3.4,12.3 3.8,25 16.1,28.4 12.2,3.4 25,-3.8 28.4,-16.2 24.5,-89.2 45.4,-180.6 62.4,-271.6 2.3,-12.6 -6,-24.6 -18.5,-27 -1.4,-0.2 -2.9,-0.3 -4.3,-0.3 z m -6570.6,-499.7 c -0.3,0 -0.5,0 -0.8,0 -12.7,0.4 -22.7,11.1 -22.3,23.8 3,92.6 9.9,186.1 20.5,277.9 1.5,12.7 13,21.7 25.6,20.3 12.7,-1.5 21.8,-12.9 20.3,-25.6 -10.5,-90.5 -17.3,-182.7 -20.3,-274.1 -0.4,-12.4 -10.6,-22.3 -23,-22.3 z m 6625.9,-50.6 c -12.5,0 -22.8,10.1 -23.1,22.6 -1.5,91.4 -6.9,183.7 -16,274.5 -1.3,12.7 8,24 20.6,25.2 12.8,1.2 24,-8 25.3,-20.6 9.2,-92 14.7,-185.6 16.3,-278.2 0.2,-12.8 -9.9,-23.3 -22.7,-23.5 -0.1,0 -0.2,0 -0.4,0 z m -10.8,-335.1 c -0.6,0 -1.3,0.1 -1.9,0.1 -12.7,1.1 -22.2,12.2 -21.1,24.9 7.5,90.7 11.3,183.1 11.3,274.6 0,12.8 10.3,23.1 23,23.1 12.8,0 23.1,-10.3 23.1,-23.1 0,-92.8 -3.8,-186.5 -11.4,-278.4 -1,-12 -11.1,-21.2 -23,-21.2 z M 14287,17846.4 c -11.4,0 -21.3,8.5 -22.9,20 -12.2,91.5 -20.7,184.9 -25.4,277.6 -0.6,12.7 9.2,23.6 21.9,24.2 12.7,1.1 23.6,-9.1 24.2,-21.9 4.6,-91.4 13,-183.5 25.1,-273.7 1.7,-12.7 -7.2,-24.3 -19.8,-26 -1.1,-0.1 -2.1,-0.2 -3.1,-0.2 z m 6496.1,-378.7 c -1.9,0 -3.8,0.2 -5.7,0.7 -12.4,3.2 -19.8,15.7 -16.7,28.1 22.6,88.3 41.7,178.8 56.7,268.9 2.1,12.6 14,21.2 26.6,19 12.6,-2.1 21.1,-14 19,-26.6 -15.3,-91.4 -34.7,-183.1 -57.6,-272.7 -2.6,-10.4 -12,-17.4 -22.3,-17.4 z M 14406,17306.3 c -9.9,0 -19,6.3 -22.1,16.3 -27.4,88.3 -51.4,178.9 -71.3,269.4 -2.8,12.5 5.1,24.8 17.6,27.5 12.3,2.8 24.7,-5.1 27.5,-17.6 19.6,-89.2 43.3,-178.6 70.3,-265.7 3.8,-12.2 -3,-25.1 -15.2,-28.9 -2.3,-0.7 -4.6,-1 -6.8,-1 z m 6195.7,-361.3 c -3.2,0 -6.4,0.6 -9.4,2 -11.7,5.2 -16.9,18.8 -11.7,30.4 37.1,83.5 71.1,169.6 101,255.9 4.2,12 17.3,18.4 29.4,14.2 12,-4.2 18.4,-17.3 14.2,-29.4 -30.3,-87.4 -64.8,-174.7 -102.4,-259.4 -3.9,-8.6 -12.3,-13.7 -21.1,-13.7 z m -5988,-151.2 c -8.5,0 -16.6,4.6 -20.6,12.6 -41.8,82.5 -80.6,167.8 -115.4,253.6 -4.8,11.8 0.9,25.3 12.7,30.1 11.8,4.8 25.3,-0.9 30,-12.7 34.4,-84.6 72.6,-168.8 113.8,-250.1 5.8,-11.4 1.2,-25.3 -10.1,-31 -3.4,-1.7 -6.9,-2.5 -10.4,-2.5 z m 5721.6,-333.9 c -4.4,0 -8.8,1.3 -12.7,3.9 -10.7,7 -13.6,21.4 -6.5,32 50.4,76 98.3,155.2 142.3,235.3 6.2,11.1 20.2,15.2 31.4,9.1 11.1,-6.2 15.2,-20.2 9.1,-31.4 -44.6,-81.2 -93.2,-161.4 -144.4,-238.6 -4.4,-6.6 -11.7,-10.3 -19.2,-10.3 z M 14904,16323.1 c -7.1,0 -14.1,3.2 -18.6,9.3 -55,74.5 -107.5,152.2 -156.1,230.9 -6.7,10.9 -3.3,25.1 7.5,31.8 10.9,6.7 25.1,3.3 31.8,-7.5 47.9,-77.7 99.7,-154.3 153.9,-227.8 7.6,-10.2 5.4,-24.7 -4.8,-32.2 -4.2,-3.1 -9,-4.5 -13.7,-4.5 z m 5088.2,-297.2 c -5.7,0 -11.3,2 -15.8,6.2 -9.3,8.7 -9.8,23.3 -1.1,32.6 62.5,66.9 122.9,137 179.4,208.5 7.9,10 22.4,11.7 32.4,3.8 10,-7.9 11.7,-22.4 3.8,-32.4 -57.3,-72.5 -118.5,-143.6 -181.9,-211.4 -4.5,-4.8 -10.7,-7.3 -16.8,-7.3 z m -4723.8,-119 c -5.8,0 -11.6,2.1 -16.1,6.5 -66.5,64.3 -131.2,132.2 -192.1,201.9 -8.4,9.6 -7.5,24.2 2.1,32.6 9.6,8.4 24.2,7.4 32.6,-2.2 60.1,-68.7 123.9,-135.7 189.5,-199.2 9.2,-8.8 9.4,-23.4 0.6,-32.6 -4.6,-4.7 -10.6,-7 -16.6,-7 z m 4313.6,-252.2 c -6.9,0 -13.8,3.2 -18.4,9.1 -7.7,10.1 -5.7,24.6 4.4,32.4 72.5,55.3 143.6,114.5 211.3,175.8 9.4,8.5 24,7.8 32.6,-1.6 8.5,-9.5 7.8,-24.1 -1.6,-32.6 -68.7,-62.2 -140.8,-122.2 -214.3,-178.3 -4.2,-3.2 -9.1,-4.8 -14,-4.8 z m -3885.3,-98 c -4.5,0 -9.1,1.3 -13,4 -76.3,52.4 -151.3,108.7 -223,167.4 -9.9,8.1 -11.4,22.6 -3.3,32.5 8.1,9.8 22.6,11.3 32.5,3.2 70.7,-57.8 144.7,-113.4 219.9,-165 10.5,-7.2 13.2,-21.6 6,-32.1 -4.5,-6.5 -11.7,-10 -19.1,-10 z m 3419.4,-200 c -8.3,0 -16.3,4.4 -20.4,12.3 -6,11.3 -1.6,25.2 9.6,31.2 80.7,42.6 160.6,89.1 237.5,138.3 10.7,6.9 25,3.7 31.9,-7 6.8,-10.7 3.7,-25 -7,-31.9 -77.9,-49.9 -159,-97 -240.8,-140.3 -3.5,-1.8 -7.1,-2.6 -10.8,-2.6 z m -2938.8,-74.3 c -3.2,0 -6.5,0.6 -9.7,2.1 -84,39.1 -167.4,82.1 -247.8,128 -11,6.3 -14.9,20.4 -8.5,31.5 6.3,11.1 20.3,15 31.4,8.6 79.3,-45.2 161.5,-87.7 244.4,-126.2 11.5,-5.4 16.6,-19.1 11.2,-30.7 -3.9,-8.4 -12.3,-13.3 -21,-13.3 z m 2430,-141.8 c -9.7,0 -18.7,6.2 -21.9,15.9 -4,12.1 2.6,25.1 14.7,29.1 86.6,28.5 173.1,61 257.1,96.7 11.6,4.9 25.2,-0.5 30.3,-12.2 4.9,-11.8 -0.5,-25.3 -12.3,-30.3 -85.1,-36.1 -172.8,-69.1 -260.7,-98 -2.4,-0.8 -4.8,-1.2 -7.2,-1.2 z m -1910.3,-48.3 c -2,0 -4.1,0.3 -6.1,0.8 -89.2,24.4 -178.6,52.8 -265.6,84.7 -11.9,4.4 -18.1,17.6 -13.7,29.6 4.4,11.9 17.6,18 29.6,13.7 85.8,-31.4 173.9,-59.4 261.8,-83.4 12.4,-3.4 19.6,-16.1 16.3,-28.4 -2.8,-10.3 -12.2,-17 -22.3,-17 z m 1372.1,-79.6 c -11.2,0 -21.1,8.2 -22.8,19.6 -1.9,12.6 6.8,24.4 19.4,26.3 90.4,13.6 181.1,31.2 269.8,52.3 12.5,3 24.9,-4.7 27.8,-17.1 3,-12.4 -4.7,-24.9 -17.1,-27.8 -89.9,-21.4 -182,-39.2 -273.6,-53.1 -1.2,-0.1 -2.4,-0.2 -3.5,-0.2 z m -828.2,-20.8 c -0.8,0 -1.5,0.1 -2.3,0.2 -92,9.1 -184.9,22.2 -275.9,39 -12.6,2.3 -20.9,14.3 -18.6,26.8 2.4,12.6 14.5,21 26.9,18.6 89.8,-16.5 181.4,-29.5 272.2,-38.5 12.7,-1.3 21.9,-12.6 20.7,-25.2 -1.2,-11.9 -11.3,-20.9 -23,-20.9 z m 330.8,-16.3 c -18.3,0 -36.6,0.2 -54.8,0.5 -12.8,0.2 -22.9,10.7 -22.7,23.4 0.2,12.6 10.5,22.8 23,22.8 0.1,0 0.3,0 0.4,0 91,-1.5 183.8,0.8 274.9,6.8 12.8,0.5 23.7,-8.8 24.5,-21.5 0.9,-12.7 -8.8,-23.7 -21.5,-24.6 -74.1,-4.9 -149.4,-7.4 -223.8,-7.4"
         style="fill:#000000;fill-opacity:1;fill-rule:nonzero;stroke:none"
         transform="matrix(0.13333333,0,0,-0.13333333,0,3333.3333)" />
      <path
         id="path36"
         d="m 17571.7,16011.4 c -1271,0 -2301.4,1030.4 -2301.4,2301.4 0,1271.1 1030.4,2301.5 2301.4,2301.5 1271.1,0 2301.5,-1030.4 2301.5,-2301.5 0,-1271 -1030.4,-2301.4 -2301.5,-2301.4 z m 0,5132.5 c -1563.5,0 -2831.1,-1267.5 -2831.1,-2831.1 0,-1563.5 1267.6,-2831 2831.1,-2831 1563.6,0 2831.1,1267.5 2831.1,2831 0,1563.6 -1267.5,2831.1 -2831.1,2831.1"
         style="fill:#ffffff;fill-opacity:1;fill-rule:nonzero;stroke:none"
         transform="matrix(0.13333333,0,0,-0.13333333,0,3333.3333)" />
      <path
         id="path37"
         d="m 17571.7,20591.2 c -1256.3,0 -2278.4,-1022 -2278.4,-2278.4 0,-1256.3 1022.1,-2278.4 2278.4,-2278.4 1256.3,0 2278.4,1022.1 2278.4,2278.4 0,1256.4 -1022.1,2278.4 -2278.4,2278.4 z m 0,-4602.9 c -1281.7,0 -2324.5,1042.8 -2324.5,2324.5 0,1281.8 1042.8,2324.6 2324.5,2324.6 1281.8,0 2324.6,-1042.8 2324.6,-2324.6 0,-1281.7 -1042.8,-2324.5 -2324.6,-2324.5 z m 0,5132.6 c -1548.3,0 -2808,-1259.7 -2808,-2808.1 0,-1548.3 1259.7,-2808 2808,-2808 1548.3,0 2808,1259.7 2808,2808 0,1548.4 -1259.7,2808.1 -2808,2808.1 z m 0,-5662.2 c -1573.8,0 -2854.1,1280.3 -2854.1,2854.1 0,1573.9 1280.3,2854.2 2854.1,2854.2 1573.8,0 2854.2,-1280.3 2854.2,-2854.2 0,-1573.8 -1280.4,-2854.1 -2854.2,-2854.1"
         style="fill:#000000;fill-opacity:1;fill-rule:nonzero;stroke:none"
         transform="matrix(0.13333333,0,0,-0.13333333,0,3333.3333)" />
      <path
         id="path38"
         d="m 15886.9,19880.5 -374.7,374.7 c -128.1,-135.8 -242.9,-284.3 -342.4,-443.4 l 457.5,-267.3 c 76.2,120 163.2,232.4 259.6,336"
         style="fill:#ffffff;fill-opacity:1;fill-rule:nonzero;stroke:none"
         transform="matrix(0.13333333,0,0,-0.13333333,0,3333.3333)" />
      <path
         id="path39"
         d="m 15202.1,19819.7 417.8,-244.1 c 69.5,107.2 148.4,209.4 235,304.2 l -342.1,342.2 c -115.2,-124.2 -219.6,-259.3 -310.7,-402.3 z m 425.2,-298.3 c -3.9,0 -7.9,1.1 -11.6,3.2 l -457.5,267.3 c -5.4,3.1 -9.3,8.3 -10.8,14.4 -1.5,6 -0.5,12.4 2.9,17.7 99.8,159.8 216,310.1 345.1,447 4.3,4.6 10.2,7.2 16.5,7.3 6.2,-0.3 12.2,-2.4 16.6,-6.8 l 374.7,-374.7 c 8.8,-8.8 9.1,-22.9 0.6,-32 -95.7,-102.9 -182.1,-214.8 -257,-332.6 -4.3,-6.9 -11.8,-10.8 -19.5,-10.8"
         style="fill:#000000;fill-opacity:1;fill-rule:nonzero;stroke:none"
         transform="matrix(0.13333333,0,0,-0.13333333,0,3333.3333)" />
      <path
         id="path40"
         d="m 17654.6,21142.6 v -529.9 c 550.2,-19.5 1051.2,-232 1437.3,-572.1 l 364.1,385 c -481.3,429.6 -1110.3,697.2 -1801.4,717"
         style="fill:#ffffff;fill-opacity:1;fill-rule:nonzero;stroke:none"
         transform="matrix(0.13333333,0,0,-0.13333333,0,3333.3333)" />
      <path
         id="path41"
         d="m 17677.7,20634.9 c 519.1,-23.5 1019.1,-222.5 1412.7,-562.3 l 332.4,351.5 c -484.1,424.7 -1102.1,670.7 -1745.1,694.7 z m 1414.2,-617.3 c -5.4,0 -10.8,1.8 -15.2,5.7 -393.7,346.7 -899.1,547.8 -1422.9,566.3 -12.5,0.4 -22.3,10.7 -22.3,23.1 v 529.9 c 0,6.3 2.5,12.2 7,16.6 4.5,4.3 11,6.5 16.7,6.5 670.5,-19.3 1315.4,-276 1816.2,-722.9 4.6,-4.1 7.4,-10 7.7,-16.2 0.2,-6.3 -2.1,-12.3 -6.3,-16.9 l -364.1,-384.9 c -4.5,-4.8 -10.7,-7.2 -16.8,-7.2"
         style="fill:#000000;fill-opacity:1;fill-rule:nonzero;stroke:none"
         transform="matrix(0.13333333,0,0,-0.13333333,0,3333.3333)" />
      <path
         id="path42"
         d="m 19212.3,19926.8 c 408.6,-415.4 660.9,-985.2 660.9,-1614 0,-199 -25.3,-392.1 -72.8,-576.2 l 506.8,-155.2 c 62.3,233.4 95.6,478.5 95.6,731.4 0,780.4 -315.7,1486.9 -826.3,1999 l -364.2,-385"
         style="fill:#000000;fill-opacity:1;fill-rule:nonzero;stroke:none"
         transform="matrix(0.13333333,0,0,-0.13333333,0,3333.3333)" />
      <path
         id="path43"
         d="m 19256.5,16745.2 374.8,-374.7 c 280.4,297.3 497.2,655.2 628.5,1052.1 l -506.5,155.1 c -105.5,-313.1 -276.6,-595.9 -496.8,-832.5"
         style="fill:#000000;fill-opacity:1;fill-rule:nonzero;stroke:none"
         transform="matrix(0.13333333,0,0,-0.13333333,0,3333.3333)" />
      <path
         id="path44"
         d="m 15931.2,16698.9 c -408.7,415.4 -660.9,985.2 -660.9,1613.9 0,393.9 99,764.6 273.3,1088.7 l -457.6,267.3 c -220.2,-402.7 -345.4,-864.7 -345.4,-1356 0,-780.3 315.8,-1486.8 826.4,-1998.9 l 364.2,385"
         style="fill:#000000;fill-opacity:1;fill-rule:nonzero;stroke:none"
         transform="matrix(0.13333333,0,0,-0.13333333,0,3333.3333)" />
      <path
         id="path45"
         d="m 19139.4,16628 c -392.2,-365 -911.8,-594.7 -1484.8,-615 v -529.9 c 719.2,20.6 1371.2,309.6 1859.5,770.2 l -374.7,374.7"
         style="fill:#ffffff;fill-opacity:1;fill-rule:nonzero;stroke:none"
         transform="matrix(0.13333333,0,0,-0.13333333,0,3333.3333)" />
      <path
         id="path46"
         d="m 17677.7,15990.8 v -483.9 c 671.5,25 1310,289.5 1803.2,747 l -342.2,342.1 c -401.4,-366.5 -918.6,-580.7 -1461,-605.2 z m -23.1,-530.8 c -6,0 -11.8,2.3 -16.1,6.5 -4.5,4.3 -7,10.3 -7,16.5 v 530 c 0,12.4 9.8,22.6 22.3,23.1 546.9,19.3 1068.9,235.6 1469.8,608.8 9.1,8.5 23.3,8.3 32.1,-0.5 l 374.7,-374.8 c 4.4,-4.4 6.8,-10.4 6.8,-16.6 -0.1,-6.3 -2.7,-12.2 -7.3,-16.5 -509.5,-480.6 -1175.2,-756.4 -1874.7,-776.5 -0.2,0 -0.4,0 -0.6,0"
         style="fill:#000000;fill-opacity:1;fill-rule:nonzero;stroke:none"
         transform="matrix(0.13333333,0,0,-0.13333333,0,3333.3333)" />
      <path
         id="path47"
         d="m 16004.1,19997.7 c 392.1,365 911.7,594.7 1484.8,615 v 529.9 c -719.3,-20.6 -1371.2,-309.6 -1859.5,-770.2 l 374.7,-374.7"
         style="fill:#000000;fill-opacity:1;fill-rule:nonzero;stroke:none"
         transform="matrix(0.13333333,0,0,-0.13333333,0,3333.3333)" />
      <path
         id="path48"
         d="m 17488.9,15483.1 v 529.9 c -550.2,19.5 -1051.2,232 -1437.3,572 l -364.1,-384.9 c 481.3,-429.6 1110.3,-697.2 1801.4,-717"
         style="fill:#ffffff;fill-opacity:1;fill-rule:nonzero;stroke:none"
         transform="matrix(0.13333333,0,0,-0.13333333,0,3333.3333)" />
      <path
         id="path49"
         d="m 15720.6,16201.6 c 484.1,-424.7 1102.1,-670.7 1745.2,-694.7 v 483.9 c -519.2,23.5 -1019.2,222.4 -1412.7,562.3 z m 1768.3,-741.6 c -0.2,0 -0.5,0 -0.7,0 -670.4,19.3 -1315.4,276 -1816.1,722.9 -4.6,4.1 -7.4,10 -7.7,16.2 -0.3,6.3 2,12.3 6.3,16.9 l 364.1,384.9 c 8.5,9 22.6,9.7 32,1.5 393.7,-346.7 899,-547.8 1422.9,-566.3 12.4,-0.5 22.3,-10.7 22.3,-23.1 v -530 c 0,-6.2 -2.6,-12.2 -7,-16.5 -4.4,-4.2 -10.1,-6.5 -16.1,-6.5"
         style="fill:#000000;fill-opacity:1;fill-rule:nonzero;stroke:none"
         transform="matrix(0.13333333,0,0,-0.13333333,0,3333.3333)" />
      <path
         id="path50"
         d="m 17571.7,16476.2 c -235.2,0 -464.2,43.8 -680.8,130.3 -11.9,4.8 -17.6,18.2 -12.9,30 4.7,11.9 18.2,17.7 30,12.9 211.1,-84.3 434.4,-127 663.7,-127 781.3,0 1466.5,499.3 1705.1,1242.5 3.9,12.1 17,18.7 29,14.9 12.2,-3.9 18.9,-16.9 15,-29 -244.8,-762.4 -947.7,-1274.6 -1749.1,-1274.6"
         style="fill:#000000;fill-opacity:1;fill-rule:nonzero;stroke:none"
         transform="matrix(0.13333333,0,0,-0.13333333,0,3333.3333)" />
      <path
         id="path51"
         d="m 19335.3,18714.3 c -10.4,0 -19.9,7.1 -22.4,17.7 -36.8,153.5 -94,301.6 -170.1,440.3 -6.1,11.2 -2,25.2 9.2,31.4 11.2,6.1 25.2,2 31.3,-9.2 78,-142.3 136.7,-294.3 174.5,-451.7 3,-12.4 -4.7,-24.9 -17.1,-27.9 -1.8,-0.4 -3.6,-0.6 -5.4,-0.6"
         style="fill:#000000;fill-opacity:1;fill-rule:nonzero;stroke:none"
         transform="matrix(0.13333333,0,0,-0.13333333,0,3333.3333)" />
      <path
         id="path52"
         d="m 16405.8,16900.6 c -5.3,0 -10.5,1.8 -14.9,5.4 -416.8,350.2 -655.8,863 -655.8,1406.8 0,1012.8 823.9,1836.7 1836.6,1836.7 191.1,0 379.4,-29.2 559.8,-86.9 12.1,-3.9 18.8,-16.8 14.9,-29 -3.8,-12.1 -16.8,-19 -29,-14.9 -175.7,56.1 -359.3,84.6 -545.7,84.6 -987.3,0 -1790.5,-803.2 -1790.5,-1790.5 0,-530.1 233.1,-1030 639.4,-1371.5 9.8,-8.2 11.1,-22.7 2.9,-32.5 -4.6,-5.4 -11.2,-8.2 -17.7,-8.2"
         style="fill:#000000;fill-opacity:1;fill-rule:nonzero;stroke:none"
         transform="matrix(0.13333333,0,0,-0.13333333,0,3333.3333)" />
      <path
         id="path53"
         d="M 20631.3,9249.9 H 9930.64 V 8832 H 11599.1 L 10297.3,3390.1 h 284.1 l 1185.4,4918.8 1185.4,-4918.8 h 284.2 L 11934.5,8832 h 8696.8 v 417.9"
         style="fill:#ffffff;fill-opacity:1;fill-rule:nonzero;stroke:none"
         transform="matrix(0.13333333,0,0,-0.13333333,0,3333.3333)" />
      <path
         id="path54"
         d="m 12970.4,3413.1 h 236.7 l -1295,5413.5 c -1.7,6.9 -0.1,14.1 4.3,19.7 4.4,5.5 11.1,8.8 18.1,8.8 h 8673.7 v 371.7 H 9953.72 v -371.7 h 1645.38 c 7.1,0 13.8,-3.3 18.2,-8.8 4.3,-5.6 5.9,-12.8 4.3,-19.7 L 10326.5,3413.1 h 236.7 l 1181.2,4901.2 c 2.5,10.4 11.8,17.7 22.4,17.7 10.7,0 20,-7.3 22.5,-17.7 z m 266,-46.1 h -284.2 c -10.6,0 -19.9,7.3 -22.4,17.6 l -1163,4825.8 -1162.9,-4825.8 c -2.5,-10.3 -11.8,-17.6 -22.5,-17.6 h -284.1 c -7.1,0 -13.8,3.2 -18.1,8.8 -4.4,5.5 -6,12.7 -4.4,19.6 l 1295.1,5413.5 H 9930.64 c -12.76,0 -23.08,10.3 -23.08,23.1 v 417.9 c 0,12.7 10.32,23 23.08,23 H 20631.3 c 12.8,0 23.1,-10.3 23.1,-23 V 8832 c 0,-12.8 -10.3,-23.1 -23.1,-23.1 h -8667.5 l 1295,-5413.5 c 1.7,-6.9 0.1,-14.1 -4.3,-19.6 -4.4,-5.6 -11,-8.8 -18.1,-8.8"
         style="fill:#000000;fill-opacity:1;fill-rule:nonzero;stroke:none"
         transform="matrix(0.13333333,0,0,-0.13333333,0,3333.3333)" />
      <path
         id="path55"
         d="M 17967.3,3390 19152.7,8309.5 20338.1,3390 h 284.2 l -1302.5,5445.1 -334.1,0.5 L 17683.2,3390 h 284.1"
         style="fill:#ffffff;fill-opacity:1;fill-rule:nonzero;stroke:none"
         transform="matrix(0.13333333,0,0,-0.13333333,0,3333.3333)" />
      <path
         id="path56"
         d="m 20356.3,3413.1 h 236.7 l -1291.4,5398.9 -297.7,0.4 -1291.5,-5399.3 h 236.7 l 1181.2,4901.8 c 2.5,10.4 11.8,17.7 22.4,17.7 10.7,0 20,-7.3 22.5,-17.7 z m 266,-46.1 h -284.2 c -10.6,0 -19.9,7.3 -22.4,17.6 L 19152.7,8211 17989.8,3384.6 c -2.6,-10.3 -11.8,-17.6 -22.5,-17.6 h -284.1 c -7.1,0 -13.8,3.2 -18.1,8.8 -4.4,5.5 -6,12.7 -4.4,19.6 l 1302.6,5445.5 c 2.5,10.4 11.7,17.7 22.4,17.7 l 334.1,-0.4 c 10.7,-0.1 20,-7.4 22.5,-17.8 l 1302.4,-5445 c 1.7,-6.9 0.1,-14.1 -4.3,-19.6 -4.4,-5.6 -11.1,-8.8 -18.1,-8.8"
         style="fill:#000000;fill-opacity:1;fill-rule:nonzero;stroke:none"
         transform="matrix(0.13333333,0,0,-0.13333333,0,3333.3333)" />
      <path
         id="path57"
         d="m 17869.3,8894.8 c -12.8,0 -23.1,10.3 -23.1,23 v 257.8 c 0,12.8 10.3,23.1 23.1,23.1 12.8,0 23.1,-10.3 23.1,-23.1 v -257.8 c 0,-12.7 -10.3,-23 -23.1,-23"
         style="fill:#ffffff;fill-opacity:1;fill-rule:nonzero;stroke:none"
         transform="matrix(0.13333333,0,0,-0.13333333,0,3333.3333)" />
      <path
         id="path58"
         d="m 17150.2,4459 -110.5,-550.4 c -3.8,-18.6 -21.1,-31.2 -37.3,-27.1 l -323.1,82.2 c -13.9,3.5 -22.1,18.3 -19.1,34.3 l 93.1,491.9 396.9,-30.9"
         style="fill:#ffffff;fill-opacity:1;fill-rule:nonzero;stroke:none"
         transform="matrix(0.13333333,0,0,-0.13333333,0,3333.3333)" />
      <path
         id="path59"
         d="m 16772.1,4465.3 -89.2,-471.5 c -0.8,-4.3 0.7,-7.4 2.1,-7.8 l 323.1,-82.1 c 1.4,-0.3 2.9,0.6 3.5,1 2.7,1.7 4.7,4.7 5.4,8.3 l 105.4,524.9 z m 236.6,-607.6 c -4,0 -8,0.5 -12,1.5 l -323,82.1 c -26,6.6 -41.5,32.8 -36.2,61 l 93.1,491.9 c 2.2,11.6 13.4,19.6 24.4,18.7 l 397,-30.8 c 6.6,-0.6 12.6,-3.9 16.6,-9.1 4,-5.3 5.5,-12 4.2,-18.5 L 17062.3,3904 c -3.2,-15.8 -12.7,-29.8 -26.1,-38.2 -8.5,-5.4 -18,-8.1 -27.5,-8.1"
         style="fill:#000000;fill-opacity:1;fill-rule:nonzero;stroke:none"
         transform="matrix(0.13333333,0,0,-0.13333333,0,3333.3333)" />
      <path
         id="path60"
         d="m 18191.7,4931.2 272.2,-447.5 -311.1,-164.8 -280,400.3 318.9,212"
         style="fill:#ffffff;fill-opacity:1;fill-rule:nonzero;stroke:none"
         transform="matrix(0.13333333,0,0,-0.13333333,0,3333.3333)" />
      <path
         id="path61"
         d="m 17905.3,4713.1 254.7,-364.2 271.4,143.8 -247,406 z m 247.5,-417.3 c -7.3,0 -14.5,3.5 -18.9,9.9 l -280,400.3 c -3.5,5.1 -4.9,11.4 -3.7,17.5 1.1,6.1 4.7,11.5 9.9,15 l 318.8,211.9 c 5.2,3.5 11.7,4.7 17.8,3.3 6.1,-1.3 11.4,-5.1 14.7,-10.5 l 272.2,-447.5 c 3.3,-5.4 4.2,-12 2.5,-18.1 -1.7,-6.1 -5.8,-11.3 -11.4,-14.3 l -311.1,-164.8 c -3.4,-1.8 -7.1,-2.7 -10.8,-2.7"
         style="fill:#000000;fill-opacity:1;fill-rule:nonzero;stroke:none"
         transform="matrix(0.13333333,0,0,-0.13333333,0,3333.3333)" />
      <path
         id="path62"
         d="m 17154.7,4150.5 c 22.1,-79.1 68.7,-302.2 88.2,-436.3 12.2,-84.2 -41,-163.9 -122.4,-185.9 -230.2,-62.3 -780.5,-59.6 -1238.7,-79.8 -31.4,-1.4 -89.2,13.9 -114.9,89.9 -87.2,257.9 394.3,337.7 870.3,599.9 9.4,5.1 20.8,4.6 29.5,-1.6 5.4,-3.9 12.4,-8.7 20.6,-13.9 82.8,-52.7 220.4,-52.7 304.5,-2.2 l 95,57.1 c 26,15.7 59.7,2.3 67.9,-27.2"
         style="fill:#ffffff;fill-opacity:1;fill-rule:nonzero;stroke:none"
         transform="matrix(0.13333333,0,0,-0.13333333,0,3333.3333)" />
      <path
         id="path63"
         d="m 16650.8,4118.7 c -0.8,0 -1.7,-0.2 -2.5,-0.7 -145.3,-80 -291.5,-143.3 -420.5,-199.2 -314.9,-136.3 -490.5,-220.9 -439.1,-373 24.9,-73.4 80.9,-74.6 92.1,-74.3 117.6,5.2 242.8,8.9 363.8,12.6 344.8,10.2 701.3,20.9 869.9,66.4 70.6,19.2 116,88.1 105.5,160.3 -18.6,128.6 -65.1,353.2 -87.5,433.5 -2,7.1 -7,12.7 -13.7,15.3 -6.5,2.6 -13.9,2 -20.1,-1.7 l -95,-57.1 c -92,-55.3 -239.5,-54.2 -328.8,2.5 -8.6,5.6 -16,10.6 -21.7,14.7 -0.7,0.5 -1.5,0.7 -2.4,0.7 z m -773,-693.4 c -45.8,0 -106.3,27.3 -132.8,105.7 -67.5,199.8 167.2,301.5 464.4,430.2 128.1,55.4 273.3,118.3 416.7,197.3 17.3,9.5 38,8.4 54,-3 5.2,-3.8 11.8,-8.3 19.6,-13.2 74.7,-47.5 203,-48.4 280.2,-1.9 l 95,57.1 c 18.6,11.2 40.8,13 61,5 20.2,-8 35.2,-24.7 41,-45.8 v 0 c 23,-82.3 69.4,-305.6 88.8,-439.2 13.9,-95.4 -46,-186.3 -139.2,-211.5 -173.8,-47 -517.1,-57.3 -880.5,-68.1 -120.9,-3.6 -245.9,-7.3 -363.2,-12.5 -1.6,-0.1 -3.3,-0.1 -5,-0.1"
         style="fill:#000000;fill-opacity:1;fill-rule:nonzero;stroke:none"
         transform="matrix(0.13333333,0,0,-0.13333333,0,3333.3333)" />
      <path
         id="path64"
         d="m 17256.7,3653.4 c 0.5,-2.3 0.8,-4 0.9,-4.7 12.2,-84.2 -67.7,-135.9 -144.1,-171.8 -226.8,-106.5 -1142.8,-45.5 -1178.2,-43.1 -0.7,0.1 -1.2,0.1 -1.9,0.1 -11.4,-0.2 -127.7,-0.2 -161.2,72.1 -4.2,9 -6.8,21.6 -8.3,33.5 -2.6,19.3 -1.3,39 3,58 3.5,15.5 18.8,25.2 34,21.3 170.1,-43.5 568.8,-71.9 963.7,-14.2 145.7,21.2 378.3,86.5 439.5,123.1 16.6,9.9 37.9,0.3 41.7,-18.9 3.2,-16 7.1,-35.5 10.9,-55.4"
         style="fill:#ffffff;fill-opacity:1;fill-rule:nonzero;stroke:none"
         transform="matrix(0.13333333,0,0,-0.13333333,0,3333.3333)" />
      <path
         id="path65"
         d="m 15933.2,3457 c 0.8,0 3,-0.1 3.6,-0.1 326.1,-22.2 989.6,-42.3 1166.9,40.9 98.7,46.3 139.2,91.8 131.1,147.6 l -11.6,58.9 c -0.5,2.3 -1.9,3.3 -3,3.8 -1.4,0.7 -2.9,0.6 -4.3,-0.2 -64,-38.3 -298.5,-104.3 -447.9,-126.2 -378.5,-55.2 -783.7,-33.6 -972.8,14.7 -1.1,0.3 -2.3,0.2 -3.4,-0.5 -0.7,-0.4 -1.9,-1.4 -2.4,-3.5 -3.9,-17.3 -4.7,-34.1 -2.6,-49.9 2,-15.8 4.8,-23.6 6.3,-26.8 27.8,-59.8 135.2,-59 139.9,-58.7 0,0 0.1,0 0.2,0 z m 576.1,-65.7 c -283.7,0 -554.7,18.1 -575.6,19.5 -14.3,0.1 -143,0.2 -182.5,85.5 -4.6,9.9 -8,23.5 -10.2,40.2 -2.8,21.2 -1.7,43.4 3.4,66 3,13.6 11.5,25.5 23.3,32.8 11.8,7.2 25.6,9.2 39,5.8 147.3,-37.7 536.8,-74.7 954.6,-13.7 142.3,20.8 371.8,84.7 430.9,120.1 14.2,8.5 31.7,9.5 46.8,2.8 15.2,-6.7 26.2,-20.6 29.5,-37 l 10.9,-55.5 c 0,0 0,0 0,-0.1 l 1,-5.4 c 15,-102.9 -82.5,-161.3 -157.1,-196.3 -108.4,-50.8 -366,-64.7 -614,-64.7"
         style="fill:#000000;fill-opacity:1;fill-rule:nonzero;stroke:none"
         transform="matrix(0.13333333,0,0,-0.13333333,0,3333.3333)" />
      <path
         id="path66"
         d="m 16604.6,3906.8 c -4.9,0 -9.8,1.5 -14,4.7 l -138.9,105.8 c -10.2,7.8 -12.1,22.2 -4.4,32.4 7.7,10.1 22.2,12.1 32.3,4.4 l 139,-105.8 c 10.1,-7.8 12.1,-22.2 4.4,-32.4 -4.6,-5.9 -11.5,-9.1 -18.4,-9.1"
         style="fill:#000000;fill-opacity:1;fill-rule:nonzero;stroke:none"
         transform="matrix(0.13333333,0,0,-0.13333333,0,3333.3333)" />
      <path
         id="path67"
         d="m 16419.9,3831.2 c -4.8,0 -9.6,1.5 -13.8,4.6 l -121.6,91.2 c -10.1,7.6 -12.2,22.1 -4.6,32.3 7.7,10.2 22.2,12.3 32.4,4.6 l 121.5,-91.2 c 10.2,-7.7 12.3,-22.1 4.6,-32.3 -4.5,-6.1 -11.4,-9.2 -18.5,-9.2"
         style="fill:#000000;fill-opacity:1;fill-rule:nonzero;stroke:none"
         transform="matrix(0.13333333,0,0,-0.13333333,0,3333.3333)" />
      <path
         id="path68"
         d="m 18132.4,4414.4 357.8,51.8 211.2,-448.2 c 31.1,-67.2 6.4,-154.3 -56.5,-194.1 -81.9,-51.9 -204.3,-119.4 -344.9,-164.6 -265.1,-85.2 -529.8,-329.7 -757.7,-209.5 -228,120.2 -212.9,129.1 -224.3,211.4 -11.4,82.3 214.5,244.4 367.4,351 124.8,87.1 447,402.2 447,402.2"
         style="fill:#ffffff;fill-opacity:1;fill-rule:nonzero;stroke:none"
         transform="matrix(0.13333333,0,0,-0.13333333,0,3333.3333)" />
      <path
         id="path69"
         d="m 18143.2,4392.6 c -44.1,-43 -327.1,-317.3 -444.6,-399.3 -91,-63.5 -367.8,-256.6 -357.8,-328.9 0.8,-6 1.5,-11.5 2.2,-16.8 7.3,-59 8.8,-71.3 210,-177.4 145.5,-76.7 311.3,8.1 486.8,97.9 82.5,42.1 167.7,85.7 253.2,113.2 140.1,45 262,113 339.6,162.1 53,33.5 74.5,107.5 47.9,164.9 l -203.9,432.6 z m -467.3,-998.2 c -49.2,0 -97.5,10.2 -144.4,35 -207.5,109.3 -224.2,130.5 -234.4,212.6 -0.6,5 -1.2,10.4 -2,16.1 -11.5,83.2 142.4,209.3 377.1,373 121.8,85.1 440.9,396.7 444.1,399.8 3.5,3.4 8,5.6 12.8,6.3 l 357.8,51.8 c 10.4,1.6 19.9,-3.8 24.2,-13 l 211.2,-448.1 c 36,-77.9 6.8,-178.1 -65,-223.5 -79.9,-50.5 -205.4,-120.5 -350.2,-167.1 -81.9,-26.3 -165.4,-69 -246.3,-110.3 -128.1,-65.5 -259.4,-132.6 -384.9,-132.6"
         style="fill:#000000;fill-opacity:1;fill-rule:nonzero;stroke:none"
         transform="matrix(0.13333333,0,0,-0.13333333,0,3333.3333)" />
      <path
         id="path70"
         d="m 18015,4025.2 c -4.4,0 -8.7,1.2 -12.6,3.8 l -161.3,104.9 c -10.7,7 -13.8,21.2 -6.8,31.9 6.9,10.7 21.2,13.8 31.9,6.8 l 161.3,-104.9 c 10.7,-7 13.8,-21.3 6.8,-31.9 -4.4,-6.9 -11.8,-10.6 -19.3,-10.6"
         style="fill:#000000;fill-opacity:1;fill-rule:nonzero;stroke:none"
         transform="matrix(0.13333333,0,0,-0.13333333,0,3333.3333)" />
      <path
         id="path71"
         d="m 17900.2,3905 c -4.3,0 -8.7,1.2 -12.5,3.7 l -161.4,105 c -10.7,6.9 -13.7,21.2 -6.8,31.9 7,10.7 21.3,13.8 32,6.7 l 161.3,-104.9 c 10.7,-7 13.8,-21.2 6.8,-31.9 -4.4,-6.8 -11.8,-10.5 -19.4,-10.5"
         style="fill:#000000;fill-opacity:1;fill-rule:nonzero;stroke:none"
         transform="matrix(0.13333333,0,0,-0.13333333,0,3333.3333)" />
      <path
         id="path72"
         d="m 17333.5,3599.6 c 0,0 179.4,-130.7 376.9,-62.5 197.4,68.3 991,486.2 991,486.2 l 41,-89.8 c 20.8,-45.5 3,-99.6 -40.8,-124.3 -197.7,-111.4 -725.4,-395.2 -1000,-413.9 -342.1,-23.3 -368.1,204.3 -368.1,204.3"
         style="fill:#ffffff;fill-opacity:1;fill-rule:nonzero;stroke:none"
         transform="matrix(0.13333333,0,0,-0.13333333,0,3333.3333)" />
      <path
         id="path73"
         d="m 17374.9,3548.4 c 31,-59.4 112.9,-144.4 325.2,-130.1 267.5,18.3 781.6,293.5 990.1,411 33.2,18.7 46.9,60.3 31.2,94.6 l -30.9,67.6 c -131,-68.7 -791.7,-413.7 -972.6,-476.2 -141.5,-48.8 -272.2,-2.6 -343,33.1 z m 279.4,-177.8 c -314.1,0 -343.4,224 -343.7,226.4 -1,9 3.4,17.9 11.3,22.5 7.9,4.6 17.8,4.1 25.2,-1.3 1.7,-1.2 172.4,-122.6 355.7,-59.3 193.6,66.9 979.9,480.7 987.8,484.8 5.6,3 12.2,3.5 18.3,1.4 6,-2 10.9,-6.4 13.5,-12.2 l 41,-89.8 c 25.5,-56 3.4,-123.6 -50.5,-154 -211.3,-119.1 -732.7,-397.9 -1009.7,-416.8 -17,-1.2 -33.3,-1.7 -48.9,-1.7"
         style="fill:#000000;fill-opacity:1;fill-rule:nonzero;stroke:none"
         transform="matrix(0.13333333,0,0,-0.13333333,0,3333.3333)" />
      <path
         id="path74"
         d="m 17893.6,7973 c 0,0 -1232.3,-501.1 -1686.9,-1051.9 -434.5,-526.2 1522.3,-2437.4 1522.3,-2437.4 2.4,-9 664.9,365.3 664.9,376.8 l -507.5,1106.9 c -200.2,431.7 -600.8,678.4 -437.4,830.1 148.6,138 975,66.7 1399.1,81.5 753.5,26.2 746.3,1124.6 746.3,1124.6 L 17893.6,7973"
         style="fill:#000000;fill-opacity:1;fill-rule:nonzero;stroke:none"
         transform="matrix(0.13333333,0,0,-0.13333333,0,3333.3333)" />
      <path
         id="path75"
         d="m 16843.8,6608.6 c -106.4,-397.9 -207.5,-1595 -230.8,-2264.5 -0.3,-9.2 678.1,-15.7 679.5,-3.6 6.8,58.9 508.3,1871.8 788.4,2351.2 148.8,254.6 1108.5,181.6 1322.6,224.1 571.6,113.5 534.2,1267.5 534.2,1267.5 L 17261.5,7114.6 c -228.8,-34.8 -357.4,-280.5 -417.7,-506"
         style="fill:#000000;fill-opacity:1;fill-rule:nonzero;stroke:none"
         transform="matrix(0.13333333,0,0,-0.13333333,0,3333.3333)" />
      <path
         id="path76"
         d="m 17405.3,4796.2 c -6.8,0 -13.5,3 -18.1,8.7 l -536.6,671.2 c -7.9,9.9 -6.3,24.5 3.6,32.4 10,8 24.6,6.3 32.5,-3.6 l 536.6,-671.2 c 7.9,-9.9 6.3,-24.5 -3.6,-32.4 -4.3,-3.4 -9.4,-5.1 -14.4,-5.1"
         style="fill:#ffffff;fill-opacity:1;fill-rule:nonzero;stroke:none"
         transform="matrix(0.13333333,0,0,-0.13333333,0,3333.3333)" />
      <path
         id="path77"
         d="m 20109.1,10010.8 c 0,0 -23,920.7 -564.4,1099.4 -46,15.2 -94.2,22.8 -142.6,24.6 l -477.7,18 c -141.7,1.1 -259.2,-33.1 -410.8,-88.6 -126.8,-46.5 -268,-132.9 -350.4,-207.8 -363.3,-330 -367,-1438 -681.2,-1411.8 -105.5,8.7 -282,185 -456.8,400.6 -140,172.7 -381.1,384.7 -381.1,384.7 l -419.9,-212 c 99.8,-169.3 189.7,-344.6 263.3,-527 153.6,-381.2 405.7,-701.2 721.5,-974.4 105.1,-90.9 253.7,-109.5 377.7,-47.6 201.4,100.4 503.1,262 690.6,414.8 69,-238.3 7.5,-498.2 -162.4,-681.9 -51,-55.1 -106.2,-105.7 -164.4,-147 -57.2,-40.7 -70.7,-121 -31.4,-179.5 63.3,-94.1 189.7,-202.4 431.1,-177.1 317,33.4 1219.9,29.8 1618.5,26.4 105.8,-1 191.2,86.7 188.7,193.4 l -48.3,2092.8"
         style="fill:#ffffff;fill-opacity:1;fill-rule:nonzero;stroke:none"
         transform="matrix(0.13333333,0,0,-0.13333333,0,3333.3333)" />
      <path
         id="path78"
         d="m 18277.3,8906.8 c 2.3,0 4.6,-0.4 6.9,-1.1 7.4,-2.3 13.1,-8.2 15.3,-15.6 71.1,-245.6 6.8,-515.3 -167.6,-704 -55.3,-59.7 -111.8,-110.3 -168,-150.2 -46.6,-33.1 -58.2,-99.4 -25.7,-147.7 60.2,-89.5 180.3,-191 409.5,-167 320.3,33.7 1240.5,29.7 1621.2,26.4 44.7,0.2 86.3,17 117.6,48.8 31.9,32.4 48.9,75.4 47.9,121.1 l -48.4,2092.7 c -0.3,10 -29.2,906.7 -548.5,1078.1 -41.5,13.7 -87.3,21.6 -136.3,23.4 l -477.6,18 c -2.2,0 -4.4,0.1 -6.6,0.1 -131.7,0 -241.2,-30.9 -395.5,-87.3 -117.5,-43 -258.5,-126.6 -342.8,-203.2 -169.4,-153.9 -261.1,-492.1 -341.9,-790.5 -93.5,-344.7 -173.9,-642.6 -356.7,-627.2 -100.5,8.3 -259.6,146 -472.9,409.1 -119.7,147.7 -317,327 -366.7,371.5 l -384,-193.8 c 103.1,-176.7 185.7,-343.4 252.4,-508.9 142.4,-353.2 383,-678.1 715.2,-965.5 98,-84.8 236.3,-102.3 352.3,-44.5 212.4,105.9 503.8,263.4 686.3,412.1 4.2,3.4 9.4,5.2 14.6,5.2 z m 3,-1235.4 c -206,0 -319.9,101 -380.4,191.1 -46.3,68.8 -29.6,163.6 37.3,211.1 53.5,38 107.6,86.4 160.8,143.9 155.6,168.2 217.7,405.3 165.9,626.1 -186.4,-144.6 -462.9,-293.6 -666.8,-395.4 -132.8,-66.2 -291,-46.2 -403.2,50.9 -337.8,292.3 -582.7,623 -727.8,983.1 -68.5,170 -154.1,341.3 -261.8,524 -3.3,5.5 -4.1,12.1 -2.3,18.2 1.8,6.1 6.1,11.3 11.8,14.1 l 419.9,212 c 8.4,4.2 18.5,2.9 25.6,-3.3 2.5,-2.2 244.2,-215.2 383.8,-387.5 199.3,-245.8 355.8,-385.1 440.8,-392.2 144.5,-11 223.9,282 308.3,593.4 82.5,304.5 176.1,649.6 355.4,812.6 89.7,81.4 233.6,166.8 358,212.3 158.1,57.9 276.7,91.9 419,90.1 l 478.4,-18 c 53.2,-2.1 103.3,-10.7 148.9,-25.7 550.6,-181.8 579.3,-1082.6 580.2,-1120.8 0,-0.1 0,-0.1 0,-0.1 l 48.4,-2092.7 c 1.4,-58.4 -20.3,-113.3 -61.1,-154.6 -40.2,-40.8 -93.5,-62.9 -150.9,-62.5 -379.9,3.2 -1298,7.2 -1615.9,-26.2 -25.3,-2.7 -49.4,-3.9 -72.3,-3.9"
         style="fill:#000000;fill-opacity:1;fill-rule:nonzero;stroke:none"
         transform="matrix(0.13333333,0,0,-0.13333333,0,3333.3333)" />
      <path
         id="path79"
         d="m 18271.2,8855.7 c -6.9,0 -13.7,3.1 -18.2,8.9 -7.9,10 -6.1,24.5 3.9,32.4 54,42.3 218.3,194.8 304.3,321 7.2,10.5 21.6,13.2 32.1,6 10.5,-7.2 13.3,-21.5 6.1,-32 -89,-130.5 -258.4,-287.7 -314,-331.3 -4.2,-3.4 -9.2,-5 -14.2,-5"
         style="fill:#000000;fill-opacity:1;fill-rule:nonzero;stroke:none"
         transform="matrix(0.13333333,0,0,-0.13333333,0,3333.3333)" />
      <path
         id="path80"
         d="m 16591.6,10218.1 -64.2,347.3 c 0,0 -52.4,265 -116.6,300.3 -47.2,26 -78.6,-72.4 -68.7,-196.5 1.6,-20.6 -26.4,-28 -34.9,-9.2 -33.4,73.9 -68.4,160.6 -71.4,205.7 -5.8,88.3 -23.3,270.8 -105,253.2 -81.6,-17.7 -227.5,-300.3 -116.6,-541.7 110.8,-241.4 367.4,-465.1 367.4,-465.1 l 210,106"
         style="fill:#ffffff;fill-opacity:1;fill-rule:nonzero;stroke:none"
         transform="matrix(0.13333333,0,0,-0.13333333,0,3333.3333)" />
      <path
         id="path81"
         d="m 16141.7,11097 c -1.9,0 -3.9,-0.3 -6,-0.7 -18.7,-4 -53.1,-36.9 -84.3,-99.3 -51.5,-103.1 -82.9,-265 -16.3,-410.2 94.4,-205.4 299.5,-400.6 350.2,-447 l 180.5,91.1 -61.1,330.3 c -20.9,105.4 -67.3,263.5 -105,284.3 -3.5,1.9 -4.4,1.4 -5.6,0.6 -17.1,-11.1 -36.8,-78.1 -29,-175 1.6,-20.6 -11.1,-38.5 -31,-43.6 -19.7,-5.2 -39.5,4.3 -47.9,23 -46.1,101.7 -70.8,173.6 -73.4,213.7 -10.6,160.5 -37.1,212.5 -57.4,227.8 -4.5,3.4 -8.8,5 -13.7,5 z m 239.9,-1008 c -5.4,0 -10.8,2 -15.1,5.7 -10.7,9.3 -261.7,229.8 -373.3,472.9 -73.5,160 -39.4,337.4 16.9,450 34.7,69.3 78,115.6 115.8,123.8 20.7,4.5 40.5,0.1 57.3,-12.5 41.9,-31.6 65.9,-114.7 75.6,-261.7 2,-30.6 22.8,-91.8 58.8,-173.7 -2.7,76.3 9.1,164 51.4,191.3 16.3,10.5 35.1,11 52.9,1.1 70,-38.5 119.1,-270 128.2,-316 l 64.2,-347.6 c 1.9,-10.1 -3.1,-20.2 -12.3,-24.8 l -210,-106 c -3.3,-1.7 -6.8,-2.5 -10.4,-2.5"
         style="fill:#000000;fill-opacity:1;fill-rule:nonzero;stroke:none"
         transform="matrix(0.13333333,0,0,-0.13333333,0,3333.3333)" />
      <path
         id="path82"
         d="m 18755.8,11011 c -13.3,2.4 -16.6,20.4 -4.8,27.2 39.8,23 96,64.8 92.5,115.2 l 8.6,194.9 c -0.6,23.7 -16.2,44.4 -38.8,51.3 l -140.1,42.5 c -21.6,6.6 -36.2,26.9 -35.7,49.7 l 4.3,206.6 -67.9,54.9 c -5.3,4.2 -6.3,12 -2.1,17.5 l 98.2,129.6 c 31.8,48.7 61,163.4 89,156.8 0,0 580.5,91.5 627.2,-196.9 7.1,-44.1 -3.6,-89.3 -27.9,-126.6 l -49.2,-75.3 c -49.3,-75.6 -73.1,-166.8 -60.1,-256.4 4.2,-28.2 69.8,-287.3 69.8,-287.3 0,0 116.5,-52.7 187.7,-72.5 15.4,-4.2 16.2,-25.9 1.2,-31.4 l -130.2,-31.1 c -130.2,-30.6 -265.2,-34 -396.7,-9.9 l -225,41.2"
         style="fill:#ffffff;fill-opacity:1;fill-rule:nonzero;stroke:none"
         transform="matrix(0.13333333,0,0,-0.13333333,0,3333.3333)" />
      <path
         id="path83"
         d="m 18588.4,11771.2 v 0 z m 192.9,-741.4 203.6,-37.3 c 129.2,-23.7 259.4,-20.4 387.3,9.7 l 104.4,24.9 c -70.9,23 -163,64.6 -167.3,66.6 -6.4,2.9 -11.1,8.5 -12.9,15.4 -6.7,26.6 -66,261 -70.2,289.6 -13.5,92.1 9.1,188.8 63.6,272.3 l 49.1,75.4 c 21.9,33.5 30.6,72.7 24.5,110.2 -42.5,262.7 -595.2,178.7 -600.8,177.8 -0.7,-0.1 -1.5,-0.2 -2.3,-0.2 -9,-9.6 -23.9,-45.1 -33.9,-69.1 -11.7,-28.1 -23.9,-57.1 -37.1,-77.3 l -93,-122.9 60,-48.6 c 5.6,-4.5 8.8,-11.3 8.6,-18.4 l -4.3,-206.6 c -0.3,-12.4 7.7,-23.5 19.4,-27.1 l 140,-42.6 c 32.2,-9.7 54.3,-39 55.2,-72.8 l -8.5,-195.2 c 2.8,-52.7 -41.3,-94.9 -85.4,-123.8 z m 374.3,-99.1 c -59.7,0 -119.4,5.5 -179,16.4 l -224.9,41.2 c -15.8,2.8 -27.7,14.9 -30.5,30.8 -2.7,15.8 4.4,31.1 18.2,39.1 53.5,31 83.1,65.1 81.1,93.6 0,0.9 -0.1,1.8 0,2.7 l 8.5,194.8 c -0.3,12.2 -9.3,24.2 -22.4,28.2 l -140.1,42.5 c -31.4,9.6 -52.8,39.3 -52.1,72.3 l 4.1,195.2 -59.1,47.8 c -15.1,12.2 -17.8,33.9 -6,49.4 l 98.2,129.6 c 10,15.4 21.3,42.5 32.2,68.6 23.4,56 42.3,100.8 75.2,97.7 54.5,8.1 601.6,81.9 650,-216.6 7.9,-48.9 -3.2,-99.6 -31.4,-142.8 l -49.1,-75.4 c -48.4,-74.1 -68.5,-159.5 -56.6,-240.5 2.8,-19.1 40.3,-170.3 66.5,-274.1 29.6,-13 117.6,-51 174.3,-66.7 16.6,-4.6 28.2,-19.3 28.9,-36.6 0.7,-17.2 -9.8,-32.8 -25.9,-38.7 -0.9,-0.3 -1.7,-0.6 -2.6,-0.8 l -130.3,-31.1 c -75.2,-17.7 -151.1,-26.6 -227.2,-26.6"
         style="fill:#000000;fill-opacity:1;fill-rule:nonzero;stroke:none"
         transform="matrix(0.13333333,0,0,-0.13333333,0,3333.3333)" />
      <path
         id="path84"
         d="m 18720.5,12505.9 c 134,12.5 -30.1,-132.2 461.7,30.9 195.8,64.9 103.7,-170.3 154.5,-153.6 187.8,61.7 181.3,59.8 274.8,38.6 61.8,-14 105.6,-126 97,-211.2 -11.4,-112.4 -130,-295.1 -235.1,-487.3 -54.4,-99.6 -157.6,-112.7 -289,26.5 -14,14.8 50.4,108.3 13.1,145.8 -96.7,97.7 -131.3,-57.4 -207.9,-13.2 -73.6,42.4 -104.4,70.6 -183,136.1 -95.2,79.3 -243.6,-56.6 -304.5,128.3 -31.8,96.5 34.8,342 218.4,359.1"
         style="fill:#000000;fill-opacity:1;fill-rule:nonzero;stroke:none"
         transform="matrix(0.13333333,0,0,-0.13333333,0,3333.3333)" />
      <path
         id="path85"
         d="m 20020.2,3906.7 h -803.9 v 2926.1 h -420 V 3906.7 h -803.9 c -256.4,0 -464.2,-207.8 -464.2,-464.2 v -69.4 h 2956.2 v 69.4 c 0,256.4 -207.8,464.2 -464.2,464.2"
         style="fill:#ffffff;fill-opacity:1;fill-rule:nonzero;stroke:none"
         transform="matrix(0.13333333,0,0,-0.13333333,0,3333.3333)" />
      <path
         id="path86"
         d="m 17551.2,3396.2 h 2910.1 v 46.3 c 0,243.2 -197.8,441.1 -441.1,441.1 h -803.9 c -12.8,0 -23.1,10.3 -23.1,23.1 v 2903 h -373.8 v -2903 c 0,-12.8 -10.3,-23.1 -23.1,-23.1 h -804 c -243.2,0 -441.1,-197.9 -441.1,-441.1 z m 2933.2,-46.2 h -2956.3 c -12.7,0 -23,10.3 -23,23.1 v 69.4 c 0,268.7 218.6,487.3 487.2,487.3 h 780.9 v 2903 c 0,12.8 10.4,23.1 23.1,23.1 h 420 c 12.7,0 23,-10.3 23,-23.1 v -2903 h 780.9 c 268.7,0 487.3,-218.6 487.3,-487.3 v -69.4 c 0,-12.8 -10.3,-23.1 -23.1,-23.1"
         style="fill:#000000;fill-opacity:1;fill-rule:nonzero;stroke:none"
         transform="matrix(0.13333333,0,0,-0.13333333,0,3333.3333)" />
      <path
         id="path87"
         d="m 20260.1,9945.3 h -211.2 c -563.3,0 -1050.6,-395.9 -1171,-951.4 L 18632,7859.4 c -57.5,-265.5 -290.4,-454.7 -559.6,-454.7 h -444.1 c -232.2,0 -420.4,-190 -420.4,-424.3 0,-234.3 188.2,-424.3 420.4,-424.3 h 721.3 l -0.4,-1.9 h 1269 c 444.1,0 828.3,312.1 923.3,750.1 l 389.9,1799.2 c 93.7,432.6 -232.6,841.8 -671.3,841.8"
         style="fill:#ffffff;fill-opacity:1;fill-rule:nonzero;stroke:none"
         transform="matrix(0.13333333,0,0,-0.13333333,0,3333.3333)" />
      <path
         id="path88"
         d="m 18358.9,6577.2 h 1259.3 c 430,0 808.8,307.8 900.7,732 l 389.9,1799.2 c 43.5,200.8 -5.3,407.4 -133.8,566.8 -126.6,157 -314.3,247 -514.9,247 h -211.2 c -548.3,0 -1031.3,-392.4 -1148.5,-933.2 l -245.8,-1134.5 c -59.4,-274 -304.2,-472.9 -582.2,-472.9 h -444.1 c -219.1,0 -397.3,-180 -397.3,-401.2 0,-221.2 178.2,-401.2 397.3,-401.2 h 721.3 c 3.2,0 6.4,-0.7 9.3,-2 z m 1259.3,-46.1 h -1269 c -3.3,0 -6.4,0.6 -9.3,1.9 h -711.6 c -244.5,0 -443.4,200.7 -443.4,447.4 0,246.7 198.9,447.4 443.4,447.4 h 444.1 c 256.4,0 482.3,183.6 537.1,436.5 l 245.8,1134.5 c 121.8,561.8 623.8,969.6 1193.6,969.6 h 211.2 c 214.6,0 415.4,-96.3 550.8,-264.2 137.4,-170.4 189.5,-391.1 143,-605.6 L 20564,7299.4 c -96.5,-445.2 -494.3,-768.3 -945.8,-768.3"
         style="fill:#000000;fill-opacity:1;fill-rule:nonzero;stroke:none"
         transform="matrix(0.13333333,0,0,-0.13333333,0,3333.3333)" />
      <path
         id="path89"
         d="m 14388.8,7092.9 c -132.1,-605 391.7,-2260.1 501.5,-2663.4 14.4,-52.9 62.7,-89.6 117.8,-89.6 h 488 c 67.9,0 122.7,54.9 122.1,122.2 -4.5,478.6 -91.5,2223.3 206.9,2725.7 172.7,290.8 489.1,421.9 700.7,560.3 507.7,332.2 316.6,1067.7 316.6,1067.7 L 14924.5,7677.4 c -265.7,-39.8 -478.8,-323.8 -535.7,-584.5"
         style="fill:#000000;fill-opacity:1;fill-rule:nonzero;stroke:none"
         transform="matrix(0.13333333,0,0,-0.13333333,0,3333.3333)" />
      <path
         id="path90"
         d="m 15116.2,8625.5 c 0,0 -1674.2,-15 -2202.1,-644 -474.4,-565.3 228.9,-3054.1 376.2,-3552.2 15.3,-51.7 62.9,-87 117.1,-87 h 629 c 13.3,0 24,10.7 24,23.8 v 2637.1 c 0,166.1 32.6,77 173.2,167.1 197.1,126.2 554.7,19 1047.4,15.4 1564.6,-11.6 1312.6,1461.4 1312.6,1461.4 l -1477.4,-21.6"
         style="fill:#000000;fill-opacity:1;fill-rule:nonzero;stroke:none"
         transform="matrix(0.13333333,0,0,-0.13333333,0,3333.3333)" />
      <path
         id="path91"
         d="m 15500.5,4337.6 32.8,-427.1 -391.1,-2 -80.8,426.1 439.1,3"
         style="fill:#ffffff;fill-opacity:1;fill-rule:nonzero;stroke:none"
         transform="matrix(0.13333333,0,0,-0.13333333,0,3333.3333)" />
      <path
         id="path92"
         d="m 15089.2,4311.7 72.1,-380 347.1,1.8 -29.3,380.9 z m 53,-426.3 c -11.1,0 -20.6,7.9 -22.6,18.8 l -80.9,426.1 c -1.3,6.7 0.5,13.7 4.9,18.9 4.3,5.3 10.8,8.4 17.6,8.5 l 439.1,2.9 c 0.1,0 0.1,0 0.2,0 12,0 22.1,-9.2 23,-21.3 l 32.8,-427 c 0.5,-6.4 -1.7,-12.7 -6,-17.4 -4.4,-4.7 -10.5,-7.4 -16.9,-7.5 l -391.1,-2 c 0,0 0,0 -0.1,0"
         style="fill:#000000;fill-opacity:1;fill-rule:nonzero;stroke:none"
         transform="matrix(0.13333333,0,0,-0.13333333,0,3333.3333)" />
      <path
         id="path93"
         d="m 13954.1,4337.6 -5.9,-427.1 -403.3,-2 -71.6,426.1 480.8,3"
         style="fill:#ffffff;fill-opacity:1;fill-rule:nonzero;stroke:none"
         transform="matrix(0.13333333,0,0,-0.13333333,0,3333.3333)" />
      <path
         id="path94"
         d="m 13500.5,4311.7 63.9,-380 361,1.8 5.3,380.9 z m 44.4,-426.3 c -11.2,0 -20.8,8.2 -22.7,19.3 l -71.7,426.1 c -1.1,6.6 0.7,13.5 5.1,18.6 4.3,5.2 10.7,8.2 17.5,8.3 l 480.9,2.9 c 6.3,0.5 12.2,-2.4 16.5,-6.8 4.4,-4.4 6.8,-10.4 6.7,-16.5 l -6,-427.1 c -0.2,-12.6 -10.4,-22.7 -22.9,-22.8 l -403.2,-2 c -0.1,0 -0.1,0 -0.2,0"
         style="fill:#000000;fill-opacity:1;fill-rule:nonzero;stroke:none"
         transform="matrix(0.13333333,0,0,-0.13333333,0,3333.3333)" />
      <path
         id="path95"
         d="m 13550.7,3963 h 375 c 26.6,0 50.6,-15.8 60.7,-40.2 33.3,-80.3 101,-268 91.9,-446 -2.5,-48.7 -43.2,-86.8 -92.3,-86.8 h -1100.4 c -50.6,0 -89.1,46 -78.9,95.2 12.1,58.9 53.9,136.5 174.6,206.2 195.4,112.9 440.9,225.7 518.3,260.6 16.1,7.3 33.5,11 51.1,11"
         style="fill:#ffffff;fill-opacity:1;fill-rule:nonzero;stroke:none"
         transform="matrix(0.13333333,0,0,-0.13333333,0,3333.3333)" />
      <path
         id="path96"
         d="m 13550.7,3940 c -14.5,0 -28.5,-3.1 -41.6,-9 -71.6,-32.3 -320.3,-146.4 -516.3,-259.6 -92.2,-53.3 -148.8,-119.3 -163.5,-190.9 -3.4,-16.3 0.8,-33.1 11.4,-46.1 11,-13.5 27.4,-21.3 44.9,-21.3 H 13986 c 37,0 67.4,28.5 69.2,64.9 9,175.3 -60,363.3 -90.1,435.9 -6.6,15.8 -22,26.1 -39.4,26.1 z m 435.3,-573 h -1100.4 c -31.5,0 -60.9,13.9 -80.7,38.2 -19.4,23.9 -27,54.7 -20.9,84.6 12.2,59.2 54.3,145.6 185.8,221.6 197.8,114.3 448.3,229.2 520.3,261.7 19.2,8.6 39.5,13 60.6,13 h 375 c 36.1,0 68.3,-21.4 82,-54.5 31.3,-75.6 103.1,-271.3 93.6,-456 -3.1,-60.9 -53.7,-108.6 -115.3,-108.6"
         style="fill:#000000;fill-opacity:1;fill-rule:nonzero;stroke:none"
         transform="matrix(0.13333333,0,0,-0.13333333,0,3333.3333)" />
      <path
         id="path97"
         d="m 15155.6,3963 h 375 c 26.6,0 50.6,-15.8 60.7,-40.2 33.3,-80.3 101,-268 91.9,-446 -2.5,-48.7 -43.2,-86.8 -92.3,-86.8 h -1100.4 c -50.6,0 -89.1,46 -78.9,95.2 12.1,58.9 53.9,136.5 174.6,206.2 195.4,112.9 440.9,225.7 518.3,260.6 16.1,7.3 33.5,11 51.1,11"
         style="fill:#ffffff;fill-opacity:1;fill-rule:nonzero;stroke:none"
         transform="matrix(0.13333333,0,0,-0.13333333,0,3333.3333)" />
      <path
         id="path98"
         d="m 15155.6,3940 c -14.4,0 -28.4,-3.1 -41.5,-9 -71.6,-32.3 -320.3,-146.4 -516.3,-259.6 -92.3,-53.3 -148.9,-119.3 -163.6,-190.9 -3.4,-16.3 0.8,-33.1 11.4,-46.1 11,-13.5 27.4,-21.3 44.9,-21.3 h 1100.4 c 37,0 67.4,28.5 69.2,64.9 9,175.4 -60,363.3 -90.1,435.9 -6.6,15.8 -22,26.1 -39.4,26.1 z m 435.3,-573 h -1100.4 c -31.5,0 -60.9,13.9 -80.7,38.2 -19.4,23.9 -27,54.7 -20.9,84.6 12.2,59.2 54.4,145.6 185.8,221.6 197.8,114.3 448.3,229.2 520.4,261.7 19.1,8.6 39.5,13 60.5,13 h 375 c 36.1,0 68.3,-21.4 82,-54.5 31.3,-75.5 103.1,-271.2 93.7,-456 -3.2,-60.9 -53.8,-108.6 -115.4,-108.6"
         style="fill:#000000;fill-opacity:1;fill-rule:nonzero;stroke:none"
         transform="matrix(0.13333333,0,0,-0.13333333,0,3333.3333)" />
      <path
         id="path99"
         d="m 13570.9,9447.1 -198.4,74.1 c -84.2,31.4 -176.3,30.3 -259.5,-3.7 -103.8,-42.5 -244.6,-111.4 -341.1,-202.7 -24.2,-23 -9.3,-64.9 23.3,-64.9 h 766.5 l 9.2,197.2"
         style="fill:#ffffff;fill-opacity:1;fill-rule:nonzero;stroke:none"
         transform="matrix(0.13333333,0,0,-0.13333333,0,3333.3333)" />
      <path
         id="path100"
         d="m 13247.2,9520.8 c -42.7,0 -85.2,-8.2 -125.4,-24.7 -100.3,-41.1 -239.6,-108.8 -334,-198.1 -5.6,-5.3 -5.5,-12.3 -3.6,-17.1 1.2,-3 4.2,-8 11,-8 h 744.4 l 7.4,158.4 -182.6,68.3 c -38,14.1 -77.7,21.2 -117.2,21.2 z m 314.5,-294 h -766.5 c -24.1,0 -44.8,14.2 -53.9,37 -9.4,23.7 -3.6,50.3 14.8,67.7 99.5,94.3 244.3,164.8 348.2,207.3 88.2,36.2 186.3,37.5 276.2,4 l 198.5,-74.1 c 9.4,-3.5 15.4,-12.7 14.9,-22.7 l -9.2,-197.2 c -0.6,-12.3 -10.7,-22 -23,-22"
         style="fill:#000000;fill-opacity:1;fill-rule:nonzero;stroke:none"
         transform="matrix(0.13333333,0,0,-0.13333333,0,3333.3333)" />
      <path
         id="path101"
         d="m 16948.5,10329.9 c 0,0 21.4,769.2 -509.2,862.1 0.3,0.7 0.6,1.5 0.8,2.2 l -562,31.8 c 0,0 -361.2,50 -693.9,-236.4 -300.1,-258.3 -366.1,-920.8 -558,-1089.4 -166.4,-146.1 -882.7,-336.2 -1070.4,-384.2 -26.6,-6.8 -45,-30.6 -44.9,-58 l 0.6,-181.6 h 1135.8 c 158.5,0 310,64 420.1,177.3 66.3,68.2 147.9,152.1 238,246.5 -1,-58.4 5.4,-155.1 46.6,-262.8 82.9,-217.2 43.3,-463.3 -115.7,-633.7 -66.7,-71.6 -142.1,-135.8 -221.9,-174.3 0,0 50.8,-240.1 420.8,-256.5 150.4,-6.7 547.7,-21.1 843.2,-4.3 403.5,22.9 701.4,97.2 701.4,97.2 l -31.3,1864.1"
         style="fill:#ffffff;fill-opacity:1;fill-rule:nonzero;stroke:none"
         transform="matrix(0.13333333,0,0,-0.13333333,0,3333.3333)" />
      <path
         id="path102"
         d="m 15042.1,8617.6 c 19,-52.3 100.2,-208.6 394.1,-221.7 120.5,-5.3 537.1,-21.4 840.9,-4.3 341.3,19.4 609.4,76.5 679.3,92.4 l -31,1845.5 c 0,0.4 0,0.7 0,1 0.2,7.6 14.6,750.4 -490.1,838.7 -2.5,0.5 -5,1.4 -7.2,2.6 l -551.3,31.2 c -5.3,0.6 -357.2,44.8 -677.5,-230.9 -162.5,-139.8 -256.3,-406.8 -339,-642.5 -69.3,-197.5 -129.3,-368 -218.9,-446.7 -168.4,-148 -869.1,-335.3 -1079.8,-389.2 -16.3,-4.2 -27.7,-18.8 -27.6,-35.6 l 0.5,-158.6 h 1112.8 c 151.3,0 298.4,62 403.5,170.2 l 15.5,15.9 c 63.3,65.2 139.3,143.4 222.4,230.6 6.6,6.9 16.7,9 25.5,5.4 8.8,-3.6 14.5,-12.3 14.3,-21.8 -1.1,-59.3 5.8,-151.5 45,-254.1 88.4,-231.4 42.3,-483.5 -120.3,-657.8 -71.4,-76.6 -142.3,-133.8 -211.1,-170.3 z m 911.8,-279.9 c -224.5,0 -438.7,8.5 -519.7,12.1 -383.4,17 -440.1,264.3 -442.4,274.8 -2.1,10.4 3,21 12.6,25.6 69.1,33.3 141.4,90.3 215,169.2 150.5,161.4 193.1,395 111,609.8 -30.9,80.8 -43,155.7 -46.7,214.9 -68.3,-71.2 -130.8,-135.6 -184.3,-190.6 l -15.5,-15.9 c -113.7,-117.1 -272.9,-184.3 -436.6,-184.3 h -1135.8 c -12.7,0 -23,10.3 -23.1,23 l -0.6,181.6 c -0.1,38 25.5,71.1 62.3,80.5 429.1,109.7 933.1,267 1060.9,379.2 80.5,70.7 141.3,243.9 205.7,427.3 84.7,241.1 180.7,514.4 352.4,662.2 336.8,289.9 697,243.9 712.2,241.7 l 560.1,-31.5 c 4.6,-0.3 8.9,-1.9 12.5,-4.5 526.9,-102.2 518.2,-857.6 517.7,-882.9 l 31.2,-1863.7 c 0.2,-10.7 -7,-20.2 -17.4,-22.8 -3,-0.7 -304.6,-75.1 -705.7,-97.8 -101.2,-5.8 -214.8,-7.9 -325.8,-7.9"
         style="fill:#000000;fill-opacity:1;fill-rule:nonzero;stroke:none"
         transform="matrix(0.13333333,0,0,-0.13333333,0,3333.3333)" />
      <path
         id="path103"
         d="m 15281,9611.9 c -5.7,0 -11.3,2 -15.7,6.2 -9.4,8.6 -9.9,23.2 -1.2,32.6 147,158.2 260.9,340.5 338.5,542 4.6,11.9 18,17.9 29.8,13.2 11.9,-4.5 17.9,-17.9 13.3,-29.8 -79.8,-207 -196.8,-394.3 -347.8,-556.8 -4.6,-4.9 -10.8,-7.4 -16.9,-7.4"
         style="fill:#000000;fill-opacity:1;fill-rule:nonzero;stroke:none"
         transform="matrix(0.13333333,0,0,-0.13333333,0,3333.3333)" />
      <path
         id="path104"
         d="m 15543.1,12199.6 c 0,0 -21,-187.9 -115.3,-292.3 -7.2,-8 -8.8,-19.5 -3.3,-28.8 l 38.9,-64.9 c 3.3,-5.6 6.1,-11.5 8.2,-17.8 l 64.5,-189.5 c 5.9,-17.3 21.5,-29.7 39.8,-31.2 40.3,-3.3 142.6,12.3 150.9,-14.6 9.3,-30 2.1,-273.4 -1.5,-379.3 -1,-28.2 18.8,-52.8 46.5,-57.9 l 218.2,-40.2 c 98.3,-18.2 199.4,-6.1 290.1,33.9 29.4,12.9 42.5,47.4 28.9,76.6 -49.9,106.6 -159.1,361 -144.6,516.7 l 96.9,271.2 c -2.4,130.1 -110.9,233.3 -241.9,230 l -476.3,-11.9"
         style="fill:#ffffff;fill-opacity:1;fill-rule:nonzero;stroke:none"
         transform="matrix(0.13333333,0,0,-0.13333333,0,3333.3333)" />
      <path
         id="path105"
         d="m 15666.7,11599.8 c 41.6,0 73.8,-5.5 82.1,-32.4 7.6,-24.6 7.5,-154.8 -0.4,-387 -0.6,-16.9 11,-31.3 27.6,-34.4 l 218.2,-40.2 c 93.7,-17.3 189.3,-6.1 276.5,32.3 8.6,3.8 15.1,10.7 18.4,19.4 3.3,8.6 2.9,18 -1,26.3 -49.1,105 -161.7,366.6 -146.7,528.6 0.1,1.9 0.6,3.8 1.2,5.7 l 95.5,267.1 c -2,54.8 -25,105.9 -64.9,144 -41.3,39.6 -95.9,60.7 -153.2,59.2 l -456.8,-11.4 c -8.3,-52.6 -37.7,-195.9 -118.2,-285.2 l 38.2,-66.3 c 4.1,-6.9 7.6,-14.4 10.3,-22.2 l 64.4,-189.6 c 3,-8.7 10.8,-14.8 19.9,-15.6 10.6,-0.9 27.7,-0.2 45.7,0.5 15.1,0.6 29.6,1.2 43.2,1.2 z m 413.7,-548.1 c -31.5,0 -63.1,2.9 -94.6,8.7 l -218.2,40.2 c -39.2,7.3 -66.7,41.5 -65.3,81.3 8,235.4 6.8,343.4 3.2,368.1 -13.8,5.1 -56.5,3.4 -80.1,2.5 -19.5,-0.8 -37.9,-1.5 -51.4,-0.4 -27.4,2.3 -50.9,20.6 -59.8,46.8 l -64.4,189.5 c -1.6,4.7 -3.7,9.2 -6.2,13.4 l -38.9,64.9 c -10.6,17.7 -8.2,40.3 6,56 88.2,97.8 109.3,277.7 109.5,279.5 1.3,11.5 10.8,20.2 22.3,20.5 l 476.4,11.9 c 70.8,1.5 136,-23.9 186.3,-72 49.8,-47.7 77.9,-111.9 79.2,-180.6 0.1,-2.8 -0.4,-5.6 -1.3,-8.2 l -96,-268.5 c -12.4,-151 95.6,-401 142.8,-501.9 9.2,-19.7 10.1,-41.8 2.4,-62.1 -7.6,-20.5 -22.9,-36.6 -42.9,-45.5 -66.5,-29.2 -137.4,-44.1 -209,-44.1"
         style="fill:#000000;fill-opacity:1;fill-rule:nonzero;stroke:none"
         transform="matrix(0.13333333,0,0,-0.13333333,0,3333.3333)" />
      <path
         id="path106"
         d="m 15499,12266.1 c -19.3,-29.6 -7.7,-69.4 24.6,-84.2 l 19.5,-9 374.2,-184.3 c 9.5,-4.7 20.9,-4.1 29.5,2.1 15.5,11.2 43.3,25 71.2,7.2 38.9,-24.8 46.8,-157.3 -53.2,-192.5 -13.1,-4.6 -20.4,-18.5 -15.1,-31.4 5.8,-13.8 14.3,-32.3 26.1,-52.5 88.1,-151.6 306.2,-160.6 411.3,-20 77.4,103.6 148.3,274 61,507 -136.9,365.4 -696.1,444 -949.1,57.6"
         style="fill:#000000;fill-opacity:1;fill-rule:nonzero;stroke:none"
         transform="matrix(0.13333333,0,0,-0.13333333,0,3333.3333)" />
      <path
         id="path107"
         d="m 16410.3,12350.9 c 0,0 163.3,193.7 402.2,118.6 238.9,-75.1 251.1,-479.5 278.8,-731.5 97.5,-887.8 314.3,-1210.9 384.3,-1291.1 77.6,-89 -533,-28.6 -738.8,41.5 -593,202.1 -280.7,773.1 -252.9,875.9 27.9,102.8 248.9,678.1 -25.8,745.4 l -139.4,118.6 91.6,122.6"
         style="fill:#000000;fill-opacity:1;fill-rule:nonzero;stroke:none"
         transform="matrix(0.13333333,0,0,-0.13333333,0,3333.3333)" />
      <path
         id="path108"
         d="m 16485.4,12073.7 -2.9,-1 c -26.1,-9.5 -54.9,3.7 -64.5,29.6 l -72.8,196.8 c -9.6,25.8 3.8,54.5 29.8,64 l 2.9,1 c 26,9.5 54.9,-3.7 64.5,-29.6 l 72.8,-196.8 c 9.6,-25.8 -3.8,-54.5 -29.8,-64"
         style="fill:#ffffff;fill-opacity:1;fill-rule:nonzero;stroke:none"
         transform="matrix(0.13333333,0,0,-0.13333333,0,3333.3333)" />
      <path
         id="path109"
         d="m 16395.2,12344.1 c -3.1,0 -6.3,-0.5 -9.4,-1.6 l -3,-1.1 c -6.7,-2.5 -12.2,-7.5 -15.2,-14 -3,-6.5 -3.2,-13.7 -0.8,-20.3 l 72.8,-196.8 c 5.2,-14 20.8,-21.1 34.9,-16 l 3,1.1 v 0 c 6.8,2.5 12.2,7.5 15.2,14 3,6.4 3.3,13.7 0.9,20.3 l -72.9,196.8 c -4,10.9 -14.4,17.6 -25.5,17.6 z m 70,-297.6 c -29.8,0 -57.9,18.3 -68.8,47.7 l -72.9,196.9 c -6.7,18.2 -5.9,38 2.2,55.6 8.2,17.8 22.9,31.3 41.3,38.1 l 3.1,1 c 37.7,13.9 80,-5.6 93.9,-43.2 l 72.8,-196.9 c 6.8,-18.2 6,-38 -2.2,-55.7 -8.2,-17.7 -22.9,-31.2 -41.3,-37.9 l -2.9,-1.1 c -8.3,-3 -16.8,-4.5 -25.2,-4.5"
         style="fill:#000000;fill-opacity:1;fill-rule:nonzero;stroke:none"
         transform="matrix(0.13333333,0,0,-0.13333333,0,3333.3333)" />
      <path
         id="path110"
         d="m 16626.5,3906.7 h -803.9 v 2926.1 h -420 V 3906.7 h -803.9 c -256.4,0 -464.2,-207.8 -464.2,-464.2 v -69.4 h 2956.2 v 69.4 c 0,256.4 -207.8,464.2 -464.2,464.2"
         style="fill:#ffffff;fill-opacity:1;fill-rule:nonzero;stroke:none"
         transform="matrix(0.13333333,0,0,-0.13333333,0,3333.3333)" />
      <path
         id="path111"
         d="m 14157.5,3396.2 h 2910.1 v 46.3 c 0,243.2 -197.8,441.1 -441.1,441.1 h -804 c -12.7,0 -23,10.3 -23,23.1 v 2903 h -373.8 v -2903 c 0,-12.8 -10.3,-23.1 -23.1,-23.1 h -804 c -243.2,0 -441.1,-197.9 -441.1,-441.1 z m 2933.2,-46.2 h -2956.3 c -12.7,0 -23,10.3 -23,23.1 v 69.4 c 0,268.7 218.6,487.3 487.2,487.3 h 780.9 v 2903 c 0,12.8 10.4,23.1 23.1,23.1 h 419.9 c 12.8,0 23.1,-10.3 23.1,-23.1 v -2903 h 780.9 c 268.7,0 487.3,-218.6 487.3,-487.3 v -69.4 c 0,-12.8 -10.3,-23.1 -23.1,-23.1"
         style="fill:#000000;fill-opacity:1;fill-rule:nonzero;stroke:none"
         transform="matrix(0.13333333,0,0,-0.13333333,0,3333.3333)" />
      <path
         id="path112"
         d="m 16866.4,9945.3 h -211.2 c -563.3,0 -1050.6,-395.9 -1171,-951.4 l -245.9,-1134.5 c -57.5,-265.5 -290.4,-454.7 -559.6,-454.7 h -444.1 c -232.2,0 -420.4,-190 -420.4,-424.3 0,-234.3 188.2,-424.3 420.4,-424.3 h 721.3 l -0.5,-1.9 h 1269.1 c 444.1,0 828.3,312.1 923.2,750.1 l 390,1799.2 c 93.7,432.6 -232.6,841.8 -671.3,841.8"
         style="fill:#ffffff;fill-opacity:1;fill-rule:nonzero;stroke:none"
         transform="matrix(0.13333333,0,0,-0.13333333,0,3333.3333)" />
      <path
         id="path113"
         d="m 14965.2,6577.2 h 1259.3 c 430,0 808.8,307.8 900.7,732 l 389.9,1799.2 c 43.5,200.8 -5.3,407.4 -133.8,566.8 -126.6,157 -314.3,247 -514.9,247 h -211.2 c -548.3,0 -1031.3,-392.4 -1148.5,-933.2 l -245.8,-1134.5 c -59.4,-274 -304.3,-472.9 -582.2,-472.9 h -444.1 c -219.1,0 -397.3,-180 -397.3,-401.2 0,-221.2 178.2,-401.2 397.3,-401.2 h 721.3 c 3.2,0 6.4,-0.7 9.3,-2 z m 1259.3,-46.1 h -1269 c -3.3,0 -6.4,0.6 -9.3,1.9 h -711.6 c -244.5,0 -443.4,200.7 -443.4,447.4 0,246.7 198.9,447.4 443.4,447.4 h 444.1 c 256.4,0 482.2,183.6 537.1,436.5 l 245.8,1134.5 c 121.8,561.8 623.8,969.6 1193.6,969.6 h 211.2 c 214.6,0 415.4,-96.3 550.8,-264.2 137.4,-170.4 189.5,-391.1 143,-605.6 l -389.9,-1799.2 c -96.5,-445.2 -494.3,-768.3 -945.8,-768.3"
         style="fill:#000000;fill-opacity:1;fill-rule:nonzero;stroke:none"
         transform="matrix(0.13333333,0,0,-0.13333333,0,3333.3333)" />
      <path
         id="path114"
         d="m 21193.1,10229.8 c -1.7,0 -3.4,0.2 -5.1,0.6 -12.5,2.8 -20.2,15.2 -17.4,27.6 371,1622.3 71.4,2879.6 -245.3,3648.6 -343.2,833.6 -780,1289.3 -784.4,1293.8 -8.8,9.2 -8.6,23.8 0.5,32.7 9.2,8.8 23.8,8.6 32.7,-0.5 4.4,-4.6 446.3,-465.3 793,-1306.3 319.8,-775.6 622.5,-2043.4 248.5,-3678.6 -2.4,-10.7 -12,-17.9 -22.5,-17.9"
         style="fill:#000000;fill-opacity:1;fill-rule:nonzero;stroke:none"
         transform="matrix(0.13333333,0,0,-0.13333333,0,3333.3333)" />
      <path
         id="path115"
         d="m 20157.5,7894.9 c -2.8,0 -5.5,0.5 -8.3,1.5 -11.9,4.6 -17.9,17.9 -13.3,29.8 700.2,1841.3 827.7,3047.6 811.4,3735.4 -17.6,744.5 -202.9,1058 -204.8,1061.1 -6.6,10.8 -3.2,25 7.7,31.7 10.9,6.6 25.1,3.2 31.7,-7.7 7.9,-12.8 192.5,-323.3 211.4,-1077.6 17.4,-692.6 -109.8,-1907 -814.3,-3759.3 -3.5,-9.2 -12.2,-14.9 -21.5,-14.9"
         style="fill:#000000;fill-opacity:1;fill-rule:nonzero;stroke:none"
         transform="matrix(0.13333333,0,0,-0.13333333,0,3333.3333)" />
      <path
         id="path116"
         d="m 5941.71,19541.1 c -6.02,0 -12.01,2.3 -16.54,7 -8.88,9.1 -8.68,23.7 0.45,32.6 15.6,15.2 1580.84,1523.2 3285.5,1844 12.58,2.3 24.6,-5.8 26.94,-18.4 2.36,-12.5 -5.88,-24.6 -18.42,-26.9 -1690.78,-318.3 -3246.32,-1816.7 -3261.83,-1831.8 -4.49,-4.4 -10.31,-6.5 -16.1,-6.5"
         style="fill:#000000;fill-opacity:1;fill-rule:nonzero;stroke:none"
         transform="matrix(0.13333333,0,0,-0.13333333,0,3333.3333)" />
      <path
         id="path117"
         d="m 5086.59,19160.3 c -5.34,0 -10.68,1.9 -15.03,5.6 -9.67,8.3 -10.77,22.9 -2.48,32.6 1144.34,1332.7 2333.68,1805.7 2345.56,1810.3 11.86,4.7 25.27,-1.3 29.87,-13.2 4.62,-11.8 -1.26,-25.2 -13.14,-29.8 -11.77,-4.6 -1190.95,-473.9 -2327.26,-1797.4 -4.58,-5.3 -11.02,-8.1 -17.52,-8.1"
         style="fill:#000000;fill-opacity:1;fill-rule:nonzero;stroke:none"
         transform="matrix(0.13333333,0,0,-0.13333333,0,3333.3333)" />
    </g>
  </g>
</svg>
