<svg width="456" height="456" viewBox="0 0 456 456" fill="none" xmlns="http://www.w3.org/2000/svg">
<path d="M90.731 259.708C88.0281 259.708 85.7301 258.807 83.8379 257.005C81.9457 255.158 81 252.964 81 250.423C81 247.836 81.9457 245.619 83.8379 243.772C85.7301 241.924 88.0281 241 90.731 241C93.4792 241 95.799 241.924 97.6912 243.772C99.6287 245.619 100.597 247.836 100.597 250.423C100.597 252.964 99.6287 255.158 97.6912 257.005C95.799 258.807 93.4792 259.708 90.731 259.708Z" fill="white"/>
<path d="M142.655 221.087H134.686C134.459 219.78 134.04 218.622 133.429 217.614C132.818 216.591 132.058 215.724 131.149 215.014C130.24 214.304 129.203 213.771 128.038 213.416C126.888 213.047 125.645 212.862 124.31 212.862C121.938 212.862 119.835 213.459 118.003 214.652C116.17 215.831 114.736 217.564 113.699 219.851C112.662 222.124 112.143 224.901 112.143 228.182C112.143 231.52 112.662 234.332 113.699 236.619C114.75 238.892 116.185 240.611 118.003 241.776C119.835 242.926 121.93 243.501 124.288 243.501C125.595 243.501 126.817 243.331 127.953 242.99C129.104 242.635 130.134 242.116 131.043 241.435C131.966 240.753 132.74 239.915 133.365 238.92C134.004 237.926 134.445 236.79 134.686 235.511L142.655 235.554C142.357 237.628 141.71 239.574 140.716 241.392C139.736 243.21 138.45 244.815 136.859 246.207C135.268 247.585 133.408 248.665 131.277 249.446C129.146 250.213 126.781 250.597 124.182 250.597C120.347 250.597 116.923 249.709 113.912 247.933C110.901 246.158 108.528 243.594 106.795 240.241C105.063 236.889 104.196 232.869 104.196 228.182C104.196 223.48 105.07 219.46 106.817 216.122C108.564 212.77 110.943 210.206 113.955 208.43C116.966 206.655 120.375 205.767 124.182 205.767C126.611 205.767 128.869 206.108 130.957 206.79C133.045 207.472 134.906 208.473 136.54 209.794C138.173 211.101 139.516 212.706 140.567 214.609C141.632 216.499 142.328 218.658 142.655 221.087ZM149.894 250V206.364H157.799V243.374H177.017V250H149.894ZM191.783 206.364V250H183.878V206.364H191.783ZM200.343 250V206.364H228.724V212.99H208.248V224.837H227.254V231.463H208.248V243.374H228.894V250H200.343ZM272.648 206.364V250H265.616L245.055 220.277H244.693V250H236.788V206.364H243.862L264.402 236.108H264.786V206.364H272.648ZM279.343 212.99V206.364H314.159V212.99H300.672V250H292.831V212.99H279.343ZM344.585 218.359C344.386 216.499 343.548 215.05 342.071 214.013C340.608 212.976 338.704 212.457 336.36 212.457C334.713 212.457 333.299 212.706 332.12 213.203C330.941 213.7 330.039 214.375 329.414 215.227C328.789 216.08 328.47 217.053 328.456 218.146C328.456 219.055 328.662 219.844 329.074 220.511C329.5 221.179 330.075 221.747 330.799 222.216C331.524 222.67 332.326 223.054 333.207 223.366C334.088 223.679 334.975 223.942 335.87 224.155L339.961 225.178C341.609 225.561 343.193 226.08 344.713 226.733C346.247 227.386 347.618 228.21 348.825 229.205C350.047 230.199 351.012 231.399 351.723 232.805C352.433 234.212 352.788 235.859 352.788 237.749C352.788 240.305 352.135 242.557 350.828 244.503C349.521 246.435 347.632 247.947 345.16 249.041C342.703 250.121 339.727 250.661 336.233 250.661C332.838 250.661 329.89 250.135 327.39 249.084C324.904 248.033 322.958 246.499 321.552 244.482C320.16 242.464 319.407 240.007 319.294 237.109H327.071C327.184 238.629 327.653 239.893 328.477 240.902C329.301 241.911 330.373 242.663 331.694 243.161C333.029 243.658 334.521 243.906 336.169 243.906C337.887 243.906 339.393 243.651 340.686 243.139C341.993 242.614 343.015 241.889 343.754 240.966C344.493 240.028 344.869 238.935 344.883 237.685C344.869 236.548 344.535 235.611 343.882 234.872C343.228 234.119 342.312 233.494 341.133 232.997C339.968 232.486 338.605 232.031 337.042 231.634L332.078 230.355C328.484 229.432 325.643 228.033 323.555 226.158C321.481 224.268 320.444 221.761 320.444 218.636C320.444 216.065 321.14 213.814 322.532 211.882C323.939 209.95 325.849 208.452 328.264 207.386C330.679 206.307 333.413 205.767 336.467 205.767C339.564 205.767 342.277 206.307 344.606 207.386C346.95 208.452 348.789 209.936 350.125 211.839C351.46 213.729 352.149 215.902 352.191 218.359H344.585Z" fill="white"/>
</svg>
